<svg id="Layer_1" data-name="Layer 1" xmlns="http://www.w3.org/2000/svg" viewBox="0 0 128 128"><defs><style>.cls-1{fill:#427f7e;}.cls-2{fill:#fff;}</style></defs><title>Artboard 1ic_home_audio</title><rect class="cls-1" x="-0.48" y="-1" width="128.98" height="128.98"/><path class="cls-2" d="M77.71,52.67c0,3.9.07,7.79,0,11.69a13.9,13.9,0,0,1-26,6.66,14.53,14.53,0,0,1-1.84-6.3c-.21-8.06-.2-16.14,0-24.2a13.94,13.94,0,0,1,27.85,0c.12,4,0,8.07,0,12.1Z"/><path class="cls-2" d="M66.32,86.87v6.64c3,0,5.9,0,8.81,0A2.52,2.52,0,0,1,77.91,96c0,1.5-1.09,2.54-2.84,2.55-5.29,0-10.58,0-15.87,0-2.28,0-4.55,0-6.82,0a2.53,2.53,0,1,1,0-5c2.88,0,5.75,0,8.74,0V86.94c-1.67-.45-3.44-.81-5.12-1.4A22.79,22.79,0,0,1,40.93,64.76c0-2,.86-3.18,2.45-3.22s2.48,1,2.58,3c.57,10.23,8.49,17.61,18.56,17.3A17.78,17.78,0,0,0,81.48,65c0-.37,0-.74.06-1.11a2.5,2.5,0,1,1,5,.3A22.83,22.83,0,0,1,67.3,86.62C67,86.67,66.67,86.78,66.32,86.87Z"/></svg>