<svg id="Layer_1" data-name="Layer 1" xmlns="http://www.w3.org/2000/svg" viewBox="0 0 128 128"><defs><style>.cls-1{fill:#427f7e;}</style></defs><title>Artboard 1ic_home_like</title><path class="cls-1" d="M69.65,11,37.91,42.75a11.44,11.44,0,0,0-3.32,8.07v57.23a11.49,11.49,0,0,0,11.46,11.46H97.61a11.55,11.55,0,0,0,10.54-6.93L126.82,69A17.21,17.21,0,0,0,111,45H78.64L84.09,18.8A8.66,8.66,0,0,0,81.74,11,8.53,8.53,0,0,0,69.65,11Zm-58,108.5a11.48,11.48,0,0,0,11.45-11.46V62.22a11.46,11.46,0,0,0-22.91,0v45.83A11.48,11.48,0,0,0,11.68,119.51Z"/></svg>