<svg id="Layer_1" data-name="Layer 1" xmlns="http://www.w3.org/2000/svg" viewBox="0 0 96 96"><defs><style>.cls-1{fill:#020202;}</style></defs><title>Artboard 1ic_home_setting</title><path class="cls-1" d="M84,48c0-1.1,0-2.16-.14-3.26L92.78,38A4.83,4.83,0,0,0,94,31.73l-9-15.51a4.74,4.74,0,0,0-6-2L68.74,18.58a36.26,36.26,0,0,0-5.62-3.27L61.73,4.22A4.81,4.81,0,0,0,57,0H39.07a4.82,4.82,0,0,0-4.8,4.22L32.88,15.31a36.26,36.26,0,0,0-5.62,3.27L16.94,14.21a4.74,4.74,0,0,0-6,2L2,31.78A4.84,4.84,0,0,0,3.22,38l8.92,6.76C12.05,45.84,12,46.9,12,48s.05,2.16.14,3.26L3.22,58A4.83,4.83,0,0,0,2,64.27l9,15.51a4.74,4.74,0,0,0,6,2l10.32-4.37a36.26,36.26,0,0,0,5.62,3.27l1.39,11.09A4.81,4.81,0,0,0,39,96H56.93a4.81,4.81,0,0,0,4.75-4.22l1.39-11.09a36.26,36.26,0,0,0,5.62-3.27L79,81.79a4.74,4.74,0,0,0,6-2l9-15.51A4.84,4.84,0,0,0,92.74,58l-8.93-6.77A25.46,25.46,0,0,0,84,48ZM48.19,64.8A16.8,16.8,0,1,1,65,48,16.82,16.82,0,0,1,48.19,64.8Z"/></svg>