<svg id="Layer_1" data-name="Layer 1" xmlns="http://www.w3.org/2000/svg" viewBox="0 0 128 128"><defs><style>.cls-1{fill:#427f7e;}.cls-2{fill:#f7f7f7;}</style></defs><title>Artboard 1ic_home_camera</title><rect class="cls-1" x="-0.5" y="-1" width="129" height="129"/><path class="cls-2" d="M50.72,39.41c6,0,12.08,0,18.11,0,5.79,0,9.54,3.73,9.55,9.5q0,14.58,0,29.17c0,5.66-3.79,9.48-9.41,9.49q-18.36,0-36.71,0A8.9,8.9,0,0,1,23,78.32q0-14.83,0-29.66a8.9,8.9,0,0,1,9.15-9.24C38.32,39.39,44.52,39.42,50.72,39.41Z"/><path class="cls-2" d="M105,63.46c0,4.43,0,8.86,0,13.29,0,4.81-4.19,7.35-8.36,5-4.32-2.41-8.58-4.93-12.89-7.36a1.6,1.6,0,0,1-.92-1.63q0-9.36,0-18.73a1.6,1.6,0,0,1,1-1.6c4.31-2.43,8.56-5,12.87-7.4a5.38,5.38,0,0,1,8.32,4.8C105.07,54.39,105,58.93,105,63.46Z"/></svg>