<svg id="Layer_1" data-name="Layer 1" xmlns="http://www.w3.org/2000/svg" viewBox="0 0 363 208"><defs><style>.cls-1{fill:#1a2e35;}.cls-2{fill:#fff;}.cls-3{fill:#275459;}.cls-4{fill:#fafafa;}.cls-5{fill:#375a64;}.cls-6{fill:#ff735d;}.cls-7{fill:#4b5555;}.cls-8{fill:#677f80;}.cls-9{fill:#ffbf9d;}.cls-10{fill:#ff9a6c;}.cls-11{opacity:0.6;}.cls-12{opacity:0.3;}.cls-13{fill:#006b73;}.cls-14{fill:#e1e1e1;}</style></defs><title>Artboard 1ic_home_banner</title><path class="cls-1" d="M1,207c0,.07,195.67,0,249.77,0s98-.05,98-.12-43.85-.12-98-.12S1,207,1,207Z"/><path class="cls-2" d="M236,.18h7.23A1.8,1.8,0,0,1,245,2V3.32a1.79,1.79,0,0,0,1.75,1.84h14.09a1.8,1.8,0,0,0,1.75-1.84V2A1.8,1.8,0,0,1,264.35.17h8.87a5.69,5.69,0,0,1,5.69,5.69l0,91.2a5.7,5.7,0,0,1-5.68,5.69l-37.2,0a5.69,5.69,0,0,1-5.69-5.69l0-91.2A5.68,5.68,0,0,1,236,.18Z"/><path class="cls-1" d="M236,.18h-.19a5.22,5.22,0,0,0-.58,0,5.44,5.44,0,0,0-2.13.74A5.55,5.55,0,0,0,231.82,2a5.83,5.83,0,0,0-1.08,1.7A6,6,0,0,0,230.31,6V8.71c0,7.57,0,18.54,0,32.08s0,29.67,0,47.58v8.52a6.44,6.44,0,0,0,.22,1.74,5.94,5.94,0,0,0,.73,1.6,6.4,6.4,0,0,0,1.18,1.31,5.75,5.75,0,0,0,3.29,1.28c1.19,0,2.37,0,3.57,0h33.54a6.06,6.06,0,0,0,3.71-1,5.78,5.78,0,0,0,2.25-3.11,6.25,6.25,0,0,0,.24-1.92V87.24q0-7.56,0-14.87c0-9.75,0-19.15,0-28.1s0-17.47,0-25.43c0-4,0-7.83,0-11.53V5.94c0-.23,0-.47,0-.69s-.06-.46-.12-.68a5.87,5.87,0,0,0-1.19-2.41A5.77,5.77,0,0,0,273,.1h-8.51a1.79,1.79,0,0,0-1.12.32,1.83,1.83,0,0,0-.69.91,2.88,2.88,0,0,0-.12,1.12V3a3.25,3.25,0,0,1,0,.54,1.75,1.75,0,0,1-.42.95,1.67,1.67,0,0,1-.87.54,2.21,2.21,0,0,1-.51,0h-2.58l-7.5,0h-3.3c-.26,0-.53,0-.78,0a1.62,1.62,0,0,1-.69-.24,1.81,1.81,0,0,1-.8-1.15A3.2,3.2,0,0,1,245,3c0-.23,0-.46,0-.68a2.9,2.9,0,0,0,0-.66,1.77,1.77,0,0,0-.21-.61,1.73,1.73,0,0,0-.91-.8,2.76,2.76,0,0,0-1.13-.13h0a2.79,2.79,0,0,1,1.11.12,1.8,1.8,0,0,1,.88.78,2.14,2.14,0,0,1,.21.6,4.64,4.64,0,0,1,0,.65V3a3.29,3.29,0,0,0,0,.7,1.88,1.88,0,0,0,.82,1.19,1.73,1.73,0,0,0,.73.26c.26,0,.51,0,.78,0h13.38a1.59,1.59,0,0,0,.53-.05,1.72,1.72,0,0,0,.92-.57,1.91,1.91,0,0,0,.45-1,3.41,3.41,0,0,0,0-.55V2.46a2.86,2.86,0,0,1,.11-1.09,1.81,1.81,0,0,1,.66-.86,1.72,1.72,0,0,1,1.06-.29H273a5.74,5.74,0,0,1,2.48.47,5.91,5.91,0,0,1,2.07,1.54,5.74,5.74,0,0,1,1.16,2.36c.06.22.08.45.12.67s0,.45,0,.68v12.9c0,8,0,16.47,0,25.43v28.1q0,7.3,0,14.87v9.52a6.3,6.3,0,0,1-.23,1.88,5.66,5.66,0,0,1-2.2,3,5.84,5.84,0,0,1-3.61,1H239.27c-1.19,0-2.39,0-3.56,0a5.5,5.5,0,0,1-3.2-1.24,5.83,5.83,0,0,1-1.15-1.28,5.31,5.31,0,0,1-.71-1.55,5.75,5.75,0,0,1-.21-1.7V88.37c0-17.91,0-34,0-47.58s0-24.51,0-32.08V6a6,6,0,0,1,.41-2.29,5.76,5.76,0,0,1,1.07-1.69,5.27,5.27,0,0,1,1.29-1,5.19,5.19,0,0,1,2.12-.75,3.63,3.63,0,0,1,.57,0Z"/><path class="cls-1" d="M235.69,102.92a5.84,5.84,0,0,1-3.34-1.3,5.77,5.77,0,0,1-1.95-3,6.6,6.6,0,0,1-.22-1.77V40.79l0-34.76a6,6,0,0,1,.43-2.35A5.75,5.75,0,0,1,231.75,2,5.59,5.59,0,0,1,233.07.88a5.47,5.47,0,0,1,2.16-.75,2.74,2.74,0,0,1,.45,0h1.12l6,0H243a2.21,2.21,0,0,1,.94.13,1.94,1.94,0,0,1,1,.85,2,2,0,0,1,.23.64,3,3,0,0,1,0,.52v.94a2.69,2.69,0,0,0,0,.57,1.7,1.7,0,0,0,.75,1.08,1.75,1.75,0,0,0,.65.23h.77l13.38,0a1.89,1.89,0,0,0,.49,0,1.59,1.59,0,0,0,.81-.51,1.61,1.61,0,0,0,.4-.9,2.82,2.82,0,0,0,0-.42V2.27a2.42,2.42,0,0,1,.12-1A1.9,1.9,0,0,1,264.48,0H273a5.84,5.84,0,0,1,2.57.49,6,6,0,0,1,2.15,1.6,5.94,5.94,0,0,1,1.21,2.45A3.54,3.54,0,0,1,279,5a1.87,1.87,0,0,1,0,.25v.15c0,.18,0,.36,0,.55l0,90.82a6.47,6.47,0,0,1-.24,1.95,5.9,5.9,0,0,1-2.3,3.17,6.05,6.05,0,0,1-3.76,1l-33.54,0h-2C236.72,102.94,236.21,102.94,235.69,102.92Zm3.58-.34,33.55,0a5.83,5.83,0,0,0,3.55-1,5.56,5.56,0,0,0,2.15-3,5.87,5.87,0,0,0,.22-1.84V5.94l0-.5V5.28a2,2,0,0,1,0-.24,2.61,2.61,0,0,0-.08-.42,5.61,5.61,0,0,0-1.14-2.32,5.8,5.8,0,0,0-2-1.52A5.87,5.87,0,0,0,273,.32h-8.51a1.57,1.57,0,0,0-1,.28,1.6,1.6,0,0,0-.62.81,2.19,2.19,0,0,0-.11.85v.86a3.54,3.54,0,0,1,0,.46,2,2,0,0,1-.47,1.06,1.84,1.84,0,0,1-1,.6,2.4,2.4,0,0,1-.56.06H247.07a4.56,4.56,0,0,1-.52,0,1.87,1.87,0,0,1-.76-.27,2,2,0,0,1-.87-1.25,2.77,2.77,0,0,1,0-.63V2.19a2.57,2.57,0,0,0,0-.48,1.88,1.88,0,0,0-.2-.56,1.65,1.65,0,0,0-.83-.73A1.8,1.8,0,0,0,243,.31h-.24l-5.95,0h-1.12a2.25,2.25,0,0,0-.41,0,5.15,5.15,0,0,0-2.08.74,4.92,4.92,0,0,0-1.26,1,5.56,5.56,0,0,0-1.05,1.66A5.67,5.67,0,0,0,230.47,6l0,34.76,0,47.58v8.52a5.39,5.39,0,0,0,.21,1.67,5.51,5.51,0,0,0,.69,1.53,6.12,6.12,0,0,0,1.13,1.25,5.49,5.49,0,0,0,3.14,1.22c.75,0,1.53,0,2.29,0h1.27Z"/><path class="cls-1" d="M234.92,9.39s.94,0,2.1.06,2.1,0,2.1,0a20.82,20.82,0,0,0-2.1-.07C235.86,9.36,234.92,9.37,234.92,9.39Z"/><path class="cls-1" d="M234.92,10.47s.94,0,2.09.06,2.1,0,2.1,0-.94-.05-2.09-.06S234.92,10.44,234.92,10.47Z"/><path class="cls-1" d="M234.91,11.54s.94.05,2.1.06,2.09,0,2.1,0-.94-.05-2.1-.06S234.91,11.52,234.91,11.54Z"/><path class="cls-1" d="M273.11,12.77h-.33l-.9,0,0,0v-.65c0-.12,0-.24,0-.38a.34.34,0,0,0-.31-.27h-.42a.35.35,0,0,0-.3.35v.95l0,0h-1.13l0,0c0-.46,0-.93,0-1.41V11c0-.11.07-.18.16-.27l.49-.48.48-.47.23-.23c.08-.08.14-.16.24-.18a.34.34,0,0,1,.26.05l.21.21.4.41c.26.26.52.51.72.74a.74.74,0,0,1,0,.42v.4c0,.24,0,.45,0,.64v.41a1.19,1.19,0,0,0,0,.15s0,0,0-.14v-.4c0-.19,0-.4,0-.65V11a.53.53,0,0,0-.06-.24c-.21-.25-.46-.48-.72-.75l-.4-.41a1.52,1.52,0,0,0-.22-.22.37.37,0,0,0-.32-.07.72.72,0,0,0-.28.2l-.23.23c-.15.15-.31.31-.48.46s-.32.33-.49.49a.89.89,0,0,0-.13.14.39.39,0,0,0-.06.19v.36c0,.48,0,.95,0,1.41v0H271v-1a.26.26,0,0,1,.23-.27h.41a.28.28,0,0,1,.24.22c0,.12,0,.25,0,.37v.67h1.25Z"/><path class="cls-3" d="M255,75.24s-.08,2.71-.08,6.05,0,6,.08,6,.08-2.7.08-6S255,75.24,255,75.24Z"/><path class="cls-3" d="M256.55,76.57s-.08,2.07-.08,4.61,0,4.62.08,4.62.08-2.07.08-4.62S256.59,76.57,256.55,76.57Z"/><path class="cls-3" d="M258.32,77.89s-.08,1.49-.08,3.34,0,3.34.08,3.34a32.69,32.69,0,0,0,.08-3.34A32.69,32.69,0,0,0,258.32,77.89Z"/><path class="cls-3" d="M259.87,79a10.35,10.35,0,0,0-.08,1.87,10.19,10.19,0,0,0,.08,1.86,11.39,11.39,0,0,0,.08-1.86A11.57,11.57,0,0,0,259.87,79Z"/><path class="cls-3" d="M261.23,79.93a3.54,3.54,0,0,0-.08,1,3.5,3.5,0,0,0,.08,1,3.14,3.14,0,0,0,.08-1A3.17,3.17,0,0,0,261.23,79.93Z"/><path class="cls-3" d="M262.78,78.84a10.35,10.35,0,0,0-.08,1.87,10.19,10.19,0,0,0,.08,1.86,11.39,11.39,0,0,0,.08-1.86A11.57,11.57,0,0,0,262.78,78.84Z"/><path class="cls-3" d="M264.23,77.34s-.08,1.57-.08,3.5,0,3.51.08,3.51.08-1.57.08-3.51S264.28,77.34,264.23,77.34Z"/><path class="cls-3" d="M245.78,77.89s-.08,1.49-.08,3.34,0,3.34.08,3.34a32.69,32.69,0,0,0,.08-3.34A32.69,32.69,0,0,0,245.78,77.89Z"/><path class="cls-3" d="M247.33,79a10.35,10.35,0,0,0-.08,1.87,10.19,10.19,0,0,0,.08,1.86,11.39,11.39,0,0,0,.08-1.86A11.57,11.57,0,0,0,247.33,79Z"/><path class="cls-3" d="M248.69,79.93a3.54,3.54,0,0,0-.08,1,3.5,3.5,0,0,0,.08,1,3.14,3.14,0,0,0,.08-1A3.17,3.17,0,0,0,248.69,79.93Z"/><path class="cls-3" d="M250.24,78.3a17.11,17.11,0,0,0-.08,2.41,17.11,17.11,0,0,0,.08,2.41,19.14,19.14,0,0,0,.08-2.41A19.14,19.14,0,0,0,250.24,78.3Z"/><path class="cls-3" d="M251.69,77.34s-.08,1.57-.08,3.5,0,3.51.08,3.51.08-1.57.08-3.51S251.74,77.34,251.69,77.34Z"/><path class="cls-3" d="M253.47,76.61c-.05,0-.08,2-.08,4.46s0,4.46.08,4.46.08-2,.08-4.46S253.51,76.61,253.47,76.61Z"/><path class="cls-3" d="M244.13,82.57a11.39,11.39,0,0,0,.08-1.86,11.57,11.57,0,0,0-.08-1.87,11.57,11.57,0,0,0-.08,1.87A11.39,11.39,0,0,0,244.13,82.57Z"/><path class="cls-3" d="M242.77,81.66a3.5,3.5,0,0,0,.08-1,3.45,3.45,0,0,0-.08-1,3.09,3.09,0,0,0-.08,1A3.14,3.14,0,0,0,242.77,81.66Z"/><path class="cls-3" d="M265.66,78.84a10.35,10.35,0,0,0-.08,1.87,10.19,10.19,0,0,0,.08,1.86,11.39,11.39,0,0,0,.08-1.86A11.57,11.57,0,0,0,265.66,78.84Z"/><path class="cls-3" d="M267,79.75a3.54,3.54,0,0,0-.08,1,3.5,3.5,0,0,0,.08,1,3.14,3.14,0,0,0,.08-1A3.17,3.17,0,0,0,267,79.75Z"/><path class="cls-3" d="M268.38,78.84a11.57,11.57,0,0,0-.08,1.87,11.39,11.39,0,0,0,.08,1.86,10.19,10.19,0,0,0,.08-1.86A10.35,10.35,0,0,0,268.38,78.84Z"/><path class="cls-3" d="M269.84,77.34s-.08,1.57-.08,3.5,0,3.51.08,3.51.08-1.57.08-3.51S269.88,77.34,269.84,77.34Z"/><path class="cls-3" d="M271.26,78.84a11.57,11.57,0,0,0-.08,1.87,11.39,11.39,0,0,0,.08,1.86,10.19,10.19,0,0,0,.08-1.86A10.35,10.35,0,0,0,271.26,78.84Z"/><path class="cls-3" d="M272.63,79.75a3.17,3.17,0,0,0-.08,1,3.14,3.14,0,0,0,.08,1,3.5,3.5,0,0,0,.08-1A3.54,3.54,0,0,0,272.63,79.75Z"/><path class="cls-3" d="M238.44,78.84a11.57,11.57,0,0,0-.08,1.87,11.39,11.39,0,0,0,.08,1.86,10.19,10.19,0,0,0,.08-1.86A10.35,10.35,0,0,0,238.44,78.84Z"/><path class="cls-3" d="M239.9,77.34c-.05,0-.08,1.57-.08,3.5s0,3.51.08,3.51.08-1.57.08-3.51S239.94,77.34,239.9,77.34Z"/><path class="cls-3" d="M241.32,78.84a11.57,11.57,0,0,0-.08,1.87,11.39,11.39,0,0,0,.08,1.86,11.39,11.39,0,0,0,.08-1.86A11.57,11.57,0,0,0,241.32,78.84Z"/><path class="cls-3" d="M242.68,79.75a3.54,3.54,0,0,0-.08,1,3.5,3.5,0,0,0,.08,1,3.14,3.14,0,0,0,.08-1A3.17,3.17,0,0,0,242.68,79.75Z"/><path class="cls-3" d="M236.66,79.75a3.54,3.54,0,0,0-.08,1,3.5,3.5,0,0,0,.08,1,3.14,3.14,0,0,0,.08-1A3.17,3.17,0,0,0,236.66,79.75Z"/><path class="cls-3" d="M234.71,49.34s0-.11,0-.32,0-.52,0-.93a20.34,20.34,0,0,1,.56-3.55,19.62,19.62,0,0,1,.81-2.47,19.16,19.16,0,0,1,1.37-2.77,20,20,0,0,1,5-5.57,19.48,19.48,0,0,1,3.75-2.24,19.17,19.17,0,0,1,4.51-1.43,19.72,19.72,0,0,1,5.06-.27,20,20,0,0,1,2.63.36,21,21,0,0,1,2.62.75,19.7,19.7,0,0,1,10.72,9.41c.24.45.45.92.66,1.39s.38,1,.54,1.45a19.72,19.72,0,0,1,1,6.19,20.6,20.6,0,0,1-.26,3.15,18.23,18.23,0,0,1-.74,3c-.16.49-.35,1-.54,1.45s-.42.94-.66,1.38a18.27,18.27,0,0,1-1.6,2.58,19.63,19.63,0,0,1-9.12,6.84,21,21,0,0,1-2.62.75,21.88,21.88,0,0,1-2.63.37,20.14,20.14,0,0,1-5.06-.28A19.7,19.7,0,0,1,242.5,65a20,20,0,0,1-5-5.57,19.16,19.16,0,0,1-1.37-2.77,19.62,19.62,0,0,1-.81-2.47,20.2,20.2,0,0,1-.56-3.55c0-.41,0-.72,0-.93s0-.32,0-.32,0,.11,0,.32,0,.53,0,.94a19.92,19.92,0,0,0,.54,3.55,19.59,19.59,0,0,0,.8,2.48,17.82,17.82,0,0,0,1.37,2.78,19.69,19.69,0,0,0,13.29,9.32,19.48,19.48,0,0,0,5.09.28,20.3,20.3,0,0,0,2.65-.36,21.77,21.77,0,0,0,2.64-.75A19.88,19.88,0,0,0,270.3,61a20.77,20.77,0,0,0,1.61-2.59c.24-.46.45-.93.66-1.4s.39-1,.54-1.46a18.63,18.63,0,0,0,.76-3,21.09,21.09,0,0,0,.25-3.18,19.69,19.69,0,0,0-1-6.23c-.15-.5-.35-1-.54-1.46s-.42-.94-.66-1.4a20.77,20.77,0,0,0-1.61-2.59,19.79,19.79,0,0,0-9.18-6.87,20.1,20.1,0,0,0-2.64-.75,18.76,18.76,0,0,0-2.65-.37,19.53,19.53,0,0,0-9.62,1.72,19.64,19.64,0,0,0-8.76,7.88,18.75,18.75,0,0,0-1.37,2.78,19.59,19.59,0,0,0-.8,2.48,19.87,19.87,0,0,0-.54,3.56c0,.41,0,.72,0,.93S234.71,49.34,234.71,49.34Z"/><path class="cls-3" d="M237.21,48.92s0-.1,0-.28,0-.45,0-.81a16.93,16.93,0,0,1,6.67-12.38,16.91,16.91,0,0,1,11.49-3.4,18,18,0,0,1,2.27.32A19.13,19.13,0,0,1,260,33a17,17,0,0,1,9.24,8.12,16,16,0,0,1,1,2.45,16.79,16.79,0,0,1,0,10.67,15.1,15.1,0,0,1-1,2.45,16.19,16.19,0,0,1-1.38,2.22,17,17,0,0,1-7.86,5.9,19.13,19.13,0,0,1-2.26.64,16.31,16.31,0,0,1-2.27.32,16.56,16.56,0,0,1-4.36-.24,16.16,16.16,0,0,1-3.9-1.23,16.54,16.54,0,0,1-3.23-1.93,17.05,17.05,0,0,1-4.31-4.81,17.26,17.26,0,0,1-1.88-4.51,17,17,0,0,1-.48-3.06c0-.36,0-.63,0-.81s0-.27,0-.27,0,.37,0,1.08a17.65,17.65,0,0,0,.46,3.07,17,17,0,0,0,1.87,4.54,17.3,17.3,0,0,0,4.31,4.85,16.76,16.76,0,0,0,3.25,1.95A16.19,16.19,0,0,0,251,65.65a17.17,17.17,0,0,0,4.39.25,18.11,18.11,0,0,0,2.28-.32,17.73,17.73,0,0,0,2.28-.65A17,17,0,0,0,267.92,59a18.24,18.24,0,0,0,1.39-2.24,15.9,15.9,0,0,0,1-2.47,17,17,0,0,0,.87-5.38,17.37,17.37,0,0,0-.87-5.38,16.2,16.2,0,0,0-1-2.46,18.24,18.24,0,0,0-1.39-2.24A17,17,0,0,0,260,32.9a17.28,17.28,0,0,0-2.28-.65,17.86,17.86,0,0,0-2.28-.32,17.1,17.1,0,0,0-8.31,1.49,16.76,16.76,0,0,0-3.25,1.95,17.3,17.3,0,0,0-4.31,4.85,17,17,0,0,0-1.87,4.54,17.65,17.65,0,0,0-.46,3.07C237.2,48.54,237.21,48.92,237.21,48.92Z"/><circle class="cls-3" cx="254.39" cy="49.34" r="13.97"/><rect class="cls-4" x="252.56" y="45.1" width="3.69" height="5.86" rx="1.85" transform="translate(508.81 96.06) rotate(180)"/><path class="cls-4" d="M254.41,52.08a2.72,2.72,0,0,0,2.72-2.72.13.13,0,0,0-.26,0,2.46,2.46,0,0,1-2.46,2.46,2.36,2.36,0,0,1-2.47-2.46.13.13,0,0,0-.26,0A2.61,2.61,0,0,0,254.41,52.08Z"/><rect class="cls-2" x="254.28" y="51.95" width="0.26" height="1.33"/><path class="cls-2" d="M252.79,53.36H256a.13.13,0,1,0,0-.26h-3.23a.13.13,0,0,0,0,.26Z"/><path class="cls-2" d="M257.11,46.17s.21,0,.44-.14.42-.19.41-.23a.88.88,0,0,0-.46.11C257.26,46,257.09,46.13,257.11,46.17Z"/><path class="cls-2" d="M256.07,44.78s.2-.15.37-.39.3-.45.27-.47-.2.15-.37.39S256,44.76,256.07,44.78Z"/><path class="cls-2" d="M254.4,44.29s.06-.23.06-.51a1,1,0,0,0-.07-.5s-.07.23-.06.5S254.36,44.29,254.4,44.29Z"/><path class="cls-2" d="M252.25,43.93s.05.21.2.41.32.33.34.3-.08-.19-.23-.38S252.29,43.91,252.25,43.93Z"/><path class="cls-2" d="M250.81,45.67s.16.17.39.3.43.21.44.18-.15-.17-.38-.3S250.83,45.64,250.81,45.67Z"/><path class="cls-1" d="M245.86,11c0,.06,3.39.12,7.57.12S261,11,261,11s-3.39-.12-7.57-.12S245.86,10.89,245.86,11Z"/><path class="cls-1" d="M230.12,19.94c0,.06,10.84.12,24.21.12s24.2-.06,24.2-.12-10.83-.12-24.2-.12S230.12,19.87,230.12,19.94Z"/><path class="cls-5" d="M27.29,188.29s9.3-10.71,12.81-21.41,1.84-9.48,1.84-9.48-4.74,10.4-8.34,15.42-10,12.4-10,12.4Z"/><path class="cls-5" d="M25.43,159.07a.54.54,0,0,1,1,.34c-.57,3.77-1.79,12.59-1.74,18.31.06,7.44,0,10.31,0,10.31H20.82s.69-15.37,1.56-20.05A32.42,32.42,0,0,1,25.43,159.07Z"/><path class="cls-5" d="M23.32,186.78a41.08,41.08,0,0,1-3.18-11.56c-.32-2.73.25-6.43,1.09-11.37a30.93,30.93,0,0,0,.49-5.47A.92.92,0,0,0,20,158a24.59,24.59,0,0,0-2.17,5.47c-.93,4.87-2,7.31-1.18,11.93s3.81,11.75,3.81,11.75Z"/><path class="cls-5" d="M19.83,187.1S9.62,165.15,8.91,161.89,5.8,151.13,5.52,151.56s-.71,4.39,1.13,8.92,9.7,27.28,9.7,27.28h3.48"/><path class="cls-1" d="M24.44,186.11l.29-.19c.18-.14.45-.33.79-.61a34.25,34.25,0,0,0,2.74-2.42,45.78,45.78,0,0,0,7.41-9.51,62.52,62.52,0,0,0,5.06-11c.51-1.45.89-2.65,1.13-3.48.13-.41.21-.73.27-.95a1.74,1.74,0,0,0,.08-.34,1.68,1.68,0,0,0-.12.33l-.31.94c-.27.82-.66,2-1.2,3.45a66.31,66.31,0,0,1-5.1,10.9,47.6,47.6,0,0,1-7.33,9.51c-1.09,1.09-2,1.91-2.69,2.47-.32.28-.59.48-.76.63Z"/><path class="cls-1" d="M23.32,175.58a2.63,2.63,0,0,0,.09-.64c.05-.45.12-1.05.19-1.76.16-1.48.42-3.53.78-5.78s.76-4.27,1.07-5.74c.16-.7.28-1.28.38-1.72a3.7,3.7,0,0,0,.11-.64,4.39,4.39,0,0,0-.2.62c-.11.4-.26,1-.44,1.71-.35,1.46-.77,3.48-1.14,5.73s-.59,4.32-.71,5.81c-.06.74-.1,1.35-.12,1.76A4.58,4.58,0,0,0,23.32,175.58Z"/><path class="cls-1" d="M20.93,157.78s-.05.09-.12.27l-.31.82c-.13.35-.29.79-.43,1.31s-.35,1.09-.5,1.75c-.08.33-.17.68-.25,1s-.15.74-.23,1.13c-.17.77-.27,1.62-.39,2.51a41.48,41.48,0,0,0-.25,5.81,42.93,42.93,0,0,0,.66,5.79c.19.87.35,1.71.58,2.47.1.39.19.76.3,1.12s.22.68.33,1c.19.65.43,1.21.62,1.71s.37.93.53,1.28l.36.79.14.27a.84.84,0,0,0-.1-.29l-.32-.81c-.15-.34-.32-.77-.5-1.28s-.4-1.07-.59-1.72l-.31-1c-.1-.35-.19-.73-.29-1.11-.21-.76-.37-1.6-.55-2.47a38.53,38.53,0,0,1-.41-11.54c.12-.88.21-1.72.37-2.5.07-.39.13-.77.21-1.13l.24-1c.14-.66.32-1.24.46-1.76s.28-1,.4-1.31l.27-.83A1.33,1.33,0,0,0,20.93,157.78Z"/><path class="cls-1" d="M5.63,152a.82.82,0,0,0,0,.1l.05.28c0,.25.1.62.2,1.09.2.95.52,2.31,1,4s1.2,3.58,2,5.7,1.78,4.44,2.69,6.91,1.63,4.86,2.29,7,1.29,4.13,1.9,5.75a35.65,35.65,0,0,0,1.61,3.75c.21.44.4.76.52,1l.14.26c0,.05.05.08.06.08a.37.37,0,0,0,0-.09l-.12-.27c-.11-.23-.29-.55-.49-1-.41-.87-1-2.15-1.54-3.77s-1.19-3.58-1.84-5.76-1.36-4.59-2.29-7.06-1.87-4.78-2.7-6.9-1.55-4-2.08-5.68-.88-3-1.1-3.92c-.11-.47-.18-.84-.24-1.09l-.07-.28Q5.65,152,5.63,152Z"/><path class="cls-5" d="M37.13,147.15a.88.88,0,0,1,1.44.9,25.93,25.93,0,0,1-1.28,3.3c-1.4,3-5.53,13.69-7.46,19.57s-4.65,16.84-4.65,16.84l-4.12-.66s3.77-18,7.45-24.52C31.48,157.36,34.44,149.82,37.13,147.15Z"/><path class="cls-1" d="M28.7,174.59a2.87,2.87,0,0,0-.21.5c-.12.32-.29.79-.47,1.38-.38,1.18-.85,2.82-1.32,4.64s-.85,3.49-1.12,4.69c-.13.57-.23,1-.31,1.43a3.36,3.36,0,0,0-.09.53,2.09,2.09,0,0,0,.17-.51l.38-1.41c.31-1.24.73-2.87,1.18-4.67s.91-3.47,1.25-4.65c.17-.56.3-1,.41-1.41A1.92,1.92,0,0,0,28.7,174.59Z"/><path class="cls-1" d="M23.11,187.43s0,0,0-.11l.05-.33c0-.28.08-.7.17-1.24.15-1.09.42-2.65.86-4.55a64,64,0,0,1,1.93-6.59c.85-2.44,1.91-5.08,3.11-7.81,2.43-5.46,4.85-10.29,6.44-13.87.81-1.79,1.43-3.25,1.84-4.26.21-.51.36-.9.46-1.17l.12-.31,0-.11s0,0,0,.1l-.14.3-.5,1.16c-.43,1-1.08,2.45-1.9,4.22-1.63,3.56-4.07,8.39-6.5,13.85-1.2,2.74-2.26,5.39-3.1,7.84a61.45,61.45,0,0,0-1.89,6.61c-.42,1.92-.67,3.49-.8,4.58-.07.54-.1,1-.12,1.25l0,.33Z"/><path class="cls-1" d="M21.06,187.1a6.69,6.69,0,0,0,.14-.7l.32-1.89c.28-1.6.72-3.8,1.34-6.19s1.31-4.53,1.85-6.06c.26-.74.48-1.35.64-1.82a3,3,0,0,0,.22-.67,6.46,6.46,0,0,0-.3.64c-.17.42-.42,1-.71,1.79a61.47,61.47,0,0,0-1.91,6.06,60.31,60.31,0,0,0-1.28,6.22c-.12.81-.21,1.46-.26,1.91A3.4,3.4,0,0,0,21.06,187.1Z"/><rect class="cls-6" x="12.6" y="186.5" width="16.09" height="19.61" transform="translate(41.28 392.61) rotate(-180)"/><rect class="cls-7" x="12.6" y="186.5" width="16.09" height="19.61" transform="translate(41.28 392.61) rotate(-180)"/><rect class="cls-8" x="17.73" y="186.5" width="14.28" height="19.61" transform="translate(49.74 392.61) rotate(-180)"/><path class="cls-4" d="M332.34,32l3.89.95a13.9,13.9,0,1,0-2-4.59h0Z"/><path class="cls-1" d="M332.34,32l.14-.25.38-.69,1.45-2.68h-.08a0,0,0,0,0,.06,0s0,0,0-.06a14,14,0,0,1,.17-6.7,12.75,12.75,0,0,1,.73-2c.15-.34.34-.66.51-1,.1-.17.18-.35.28-.51l.33-.48a13.51,13.51,0,0,1,3.47-3.58,13.76,13.76,0,0,1,16.63.5,13.54,13.54,0,0,1,4,5.25l.33.79.25.81.12.4.09.42.17.82a14.06,14.06,0,0,1,.13,3.3,13.77,13.77,0,0,1-11.13,12.45,13.83,13.83,0,0,1-14.12-5.9l0,0-2.88-.68-.75-.17-.27-.05.24.06.74.19,2.89.74,0,0a13.7,13.7,0,0,0,5,4.59,14,14,0,0,0,20.61-11.17,14.58,14.58,0,0,0-.13-3.36l-.18-.84-.09-.42-.12-.41-.26-.82c-.1-.27-.22-.53-.33-.8a13.66,13.66,0,0,0-4.06-5.34,13.94,13.94,0,0,0-20.4,3.16l-.33.49c-.1.17-.18.35-.28.51-.17.35-.37.68-.51,1a13.06,13.06,0,0,0-.73,2,14,14,0,0,0-.12,6.76l.1,0h0a0,0,0,0,0-.06,0l0,0-1.42,2.74-.36.69Z"/><path class="cls-1" d="M343.57,25.69a1.36,1.36,0,1,1-1.35-1.35A1.35,1.35,0,0,1,343.57,25.69Z"/><path class="cls-1" d="M349,25.69a1.36,1.36,0,1,1-1.35-1.35A1.35,1.35,0,0,1,349,25.69Z"/><path class="cls-1" d="M354.42,25a1.36,1.36,0,1,1-1.85-.5A1.36,1.36,0,0,1,354.42,25Z"/><rect class="cls-5" x="337.38" y="116.45" width="4.87" height="90.46"/><path class="cls-1" d="M337.38,206.91v-.47c0-.31,0-.77,0-1.36,0-1.2,0-3,0-5.24,0-4.55,0-11.13,0-19.29,0-16.3,0-38.9.05-64.1l-.11.12h4.87l-.12-.12c0,42.58.07,78.62.08,90.46l0,0-3.67,0h0l3.69,0h0v0c0-11.84,0-47.88.08-90.46v-.12h-5.11v.12c0,25.23,0,47.86.05,64.19,0,8.14,0,14.72,0,19.26,0,2.26,0,4,0,5.21,0,.59,0,1,0,1.35S337.38,206.91,337.38,206.91Z"/><rect class="cls-5" x="221.78" y="114.86" width="116.92" height="19.58" transform="translate(560.47 249.3) rotate(-180)"/><path class="cls-1" d="M221.76,114.85h117v19.61H221.76Zm116.93,0H221.79v19.56h116.9Z"/><rect class="cls-5" x="224.68" y="118.38" width="109.78" height="13.21"/><path class="cls-1" d="M224.68,131.6s0-.3,0-.87,0-1.41,0-2.53c0-2.22,0-5.52,0-9.82l-.06.06,109.78.06h0l-.12-.12V131.6l.12-.12-78,.05-23.27,0h-6.32l6.27,0,23.23,0,78.12.06h.12V118.26h-.13l-109.78.07h-.05v0c0,4.31,0,7.62,0,9.85,0,1.11,0,2,0,2.52S224.68,131.6,224.68,131.6Z"/><rect class="cls-5" x="216.9" y="114.86" width="4.87" height="92.05"/><path class="cls-1" d="M216.9,206.91s0-.16,0-.48,0-.78,0-1.39c0-1.22,0-3,0-5.32,0-4.63,0-11.33,0-19.63,0-16.6,0-39.59.05-65.23l-.12.12h4.88l-.12-.12c0,43.39.07,80.1.08,92.05l0,0-3.68,0h0l3.7,0h0v0c0-11.95.05-48.66.09-92v-.12h-5.12v.12c0,25.67,0,48.7.05,65.31,0,8.29,0,15,0,19.6,0,2.31,0,4.09,0,5.31,0,.6,0,1.06,0,1.37S216.9,206.91,216.9,206.91Z"/><path class="cls-5" d="M201.13,110.83H361v5.62H201.13Z"/><path class="cls-1" d="M201.13,110.83s0,.43,0,1.35,0,2.34,0,4.27v0h0l159.89.09h.13v-5.86H361l-113.33.05-34.11,0h.06l34.14,0L361,111l-.12-.12v5.62l.12-.12h0l-159.89.09,0,0C201.14,112.63,201.13,111,201.13,110.83Z"/><path class="cls-5" d="M276.74,125a2.84,2.84,0,1,0,2.84-2.83A2.84,2.84,0,0,0,276.74,125Z"/><path class="cls-1" d="M276.74,125s0-.25.14-.68a2.84,2.84,0,0,1,1-1.51,2.77,2.77,0,0,1,2.59-.37,2.72,2.72,0,0,1,1.26.95,2.75,2.75,0,0,1,.53,1.61,2.68,2.68,0,0,1-.53,1.61,2.72,2.72,0,0,1-1.26,1,2.77,2.77,0,0,1-2.59-.37,2.84,2.84,0,0,1-1-1.51c-.12-.43-.11-.68-.14-.68s0,.06,0,.18a1.86,1.86,0,0,0,.06.52,2.81,2.81,0,0,0,1,1.62,2.89,2.89,0,0,0,2.77.44,2.84,2.84,0,0,0,1.37-1,2.9,2.9,0,0,0,0-3.48,2.84,2.84,0,0,0-1.37-1,2.89,2.89,0,0,0-2.77.44,2.81,2.81,0,0,0-1,1.62,1.86,1.86,0,0,0-.06.52C276.73,124.93,276.73,125,276.74,125Z"/><path class="cls-1" d="M296.92,16.17a7.93,7.93,0,0,1,1.88-2.61,3.75,3.75,0,0,1,3-.94,2.47,2.47,0,0,1,2.07,2.17l.78.29a8,8,0,0,0-3.19,4.15c-.69,1.63-.74,3.21-1.86,4.59-.81-1.13-1.77-2.33-1.82-3.72a3.89,3.89,0,0,0-.46,2.71,3.91,3.91,0,0,1-1.4-3.19A8.27,8.27,0,0,1,296.92,16.17Z"/><path class="cls-1" d="M302.88,13.46c.83-3.67,5.56-4.1,8.57-4a12,12,0,0,1,7.91,3.85A24.3,24.3,0,0,1,324,20.88l-2.19.26a1.42,1.42,0,0,1,1.43,1,3.77,3.77,0,0,1,0,1.83,27.85,27.85,0,0,1-.94,4.33c-1.16,3.69-3.44,6.93-5.69,10.11a21.7,21.7,0,0,1,.73-8.72,5.41,5.41,0,0,0,.12-3.08,4.14,4.14,0,0,0-1.94-2c-.83-.47-1.74-.79-2.57-1.26a7.94,7.94,0,0,1-3.72-4.93Z"/><path class="cls-9" d="M318.82,23.86l-1.56,21.93c-.27,3.72-1.42,9.15-7.29,8.46h0c-5.06-1-6-5.92-5.75-9.4.12-1.65.21-3,.21-3.2,0,0-5.54-.92-5.55-6.47,0-2.69.43-8.22.89-13.21a10.34,10.34,0,0,1,10.41-9.4h.54C316.49,13,319.38,18.1,318.82,23.86Z"/><path class="cls-10" d="M304.43,41.65a13.43,13.43,0,0,0,7.25-2.06s-1.8,4-7.34,3.48Z"/><path class="cls-1" d="M309,25c.1.12.78-.34,1.7-.29s1.58.56,1.69.45,0-.26-.33-.5a2.39,2.39,0,0,0-1.34-.5,2.21,2.21,0,0,0-1.37.37C309.06,24.76,309,25,309,25Z"/><path class="cls-1" d="M308.88,27.29a.76.76,0,0,0,.72.76.72.72,0,0,0,.78-.67.74.74,0,0,0-.72-.76A.72.72,0,0,0,308.88,27.29Z"/><path class="cls-1" d="M306.15,31.25a5.3,5.3,0,0,0-1.38-.27c-.22,0-.42-.07-.46-.22a1.11,1.11,0,0,1,.16-.64l.66-1.65a29,29,0,0,0,1.49-4.33,28,28,0,0,0-1.84,4.2L304.15,30a1.22,1.22,0,0,0-.12.85.52.52,0,0,0,.35.33,1.8,1.8,0,0,0,.37.05A5.29,5.29,0,0,0,306.15,31.25Z"/><path class="cls-1" d="M309.69,21.58c.07.21.82.12,1.71.23s1.59.38,1.71.19-.07-.29-.36-.5a2.89,2.89,0,0,0-1.26-.47,2.74,2.74,0,0,0-1.34.15C309.82,21.31,309.66,21.47,309.69,21.58Z"/><path class="cls-1" d="M300.77,22.55c.09.18.82.05,1.7.1s1.59.22,1.7.05-.09-.24-.38-.4a3,3,0,0,0-1.28-.32,3.24,3.24,0,0,0-1.31.21C300.89,22.32,300.74,22.47,300.77,22.55Z"/><path class="cls-9" d="M318.32,28c.1,0,3.83-1.09,3.67,2.7s-3.94,2.85-3.94,2.74S318.32,28,318.32,28Z"/><path class="cls-10" d="M319.27,32s.06,0,.17.1a.68.68,0,0,0,.5,0,1.63,1.63,0,0,0,.81-1.43,2.14,2.14,0,0,0-.14-1,.78.78,0,0,0-.48-.53.33.33,0,0,0-.39.17c-.06.1,0,.18-.06.18s-.08-.06,0-.22a.46.46,0,0,1,.16-.23.5.5,0,0,1,.37-.08.91.91,0,0,1,.66.62,2.16,2.16,0,0,1,.19,1.06,1.71,1.71,0,0,1-1,1.6.74.74,0,0,1-.6-.12C319.27,32.12,319.25,32,319.27,32Z"/><path class="cls-1" d="M300.56,24.66c.1.12.78-.34,1.7-.29s1.58.57,1.69.46-.05-.27-.33-.5a2.32,2.32,0,0,0-1.34-.51,2.28,2.28,0,0,0-1.37.37C300.61,24.4,300.51,24.61,300.56,24.66Z"/><path class="cls-1" d="M301.25,27a.74.74,0,0,0,.71.76.71.71,0,0,0,.78-.67.75.75,0,0,0-.71-.76A.72.72,0,0,0,301.25,27Z"/><path class="cls-1" d="M302.73,15.41c-.6-2.32,1.31-3.38,3.31-4.69a5.94,5.94,0,0,1,6.73.25,25.68,25.68,0,0,1,2.58,2.73,4.44,4.44,0,0,0,3.26,1.64,4.5,4.5,0,0,1-5.05.77,11.25,11.25,0,0,0,5.37,3.61,4.09,4.09,0,0,1-5.16-.81,11.44,11.44,0,0,0,2.68,4.82c.22.22.46.52.37.82s-.49.39-.81.41a5.27,5.27,0,0,1-4.67-2.56c-1-1.74-1.66-3.59-2.57-5.37-.43-.86-1.84-2.35-3-2.39-.94,0-2.74.27-3.18,1.1"/><path class="cls-1" d="M311.32,13.43a1.11,1.11,0,0,1,.81-.43,5.71,5.71,0,0,1,5.38,2.71,13.61,13.61,0,0,1,1.89,6,11.14,11.14,0,0,1-.24,5.11l-1,1.34a3.62,3.62,0,0,0-.44,1.43c-.13.49-.51,1-1,.93a1,1,0,0,1-.71-.77c-.32-1.08.13-2.27-.23-3.33a7.59,7.59,0,0,0-1.25-1.86A11.12,11.12,0,0,1,313,20.89c-.57-2.16-1.15-4.31-1.72-6.47A1.26,1.26,0,0,1,311.32,13.43Z"/><path class="cls-1" d="M302.73,15.41c-.6-2.32,1.31-3.38,3.31-4.69a5.94,5.94,0,0,1,6.73.25,25.68,25.68,0,0,1,2.58,2.73,4.44,4.44,0,0,0,3.26,1.64,4.5,4.5,0,0,1-5.05.77,11.25,11.25,0,0,0,5.37,3.61,4.09,4.09,0,0,1-5.16-.81,11.44,11.44,0,0,0,2.68,4.82c.22.22.46.52.37.82s-.49.39-.81.41a5.27,5.27,0,0,1-4.67-2.56c-1-1.74-1.66-3.59-2.57-5.37-.43-.86-1.84-2.35-3-2.39-.94,0-2.74.27-3.18,1.1"/><path class="cls-5" d="M314.7,15s-.19-.06-.51-.2A4.58,4.58,0,0,1,313,14c-.48-.4-1-1-1.56-1.54a5.79,5.79,0,0,0-1-.82,3.53,3.53,0,0,0-1.34-.49,4.58,4.58,0,0,0-2.68.43,6.91,6.91,0,0,0-1.8,1.3,9.84,9.84,0,0,0-1,1.11,2.76,2.76,0,0,0-.31.45s.5-.59,1.41-1.44a7.19,7.19,0,0,1,1.78-1.22,4.62,4.62,0,0,1,2.56-.4,4.3,4.3,0,0,1,2.26,1.24c.59.56,1.1,1.12,1.6,1.51a4.05,4.05,0,0,0,1.29.76A1.54,1.54,0,0,0,314.7,15Z"/><path class="cls-5" d="M311.83,18.19s-.37-.49-.86-1.33c-.26-.42-.55-.93-.93-1.47a5.22,5.22,0,0,0-1.53-1.5,4.2,4.2,0,0,0-2.07-.6,4,4,0,0,0-1.72.33,3.79,3.79,0,0,0-1,.62,1.33,1.33,0,0,0-.3.32,6.54,6.54,0,0,1,1.36-.78,4.13,4.13,0,0,1,1.65-.28,4.31,4.31,0,0,1,2,.59,5.15,5.15,0,0,1,1.47,1.43c.39.52.69,1,1,1.43a11.44,11.44,0,0,0,.7.94C311.7,18.1,311.82,18.2,311.83,18.19Z"/><path class="cls-5" d="M298.92,17.67a5.93,5.93,0,0,0,.4-.8,5.34,5.34,0,0,1,1.26-1.67,3.67,3.67,0,0,1,1.89-.84c.53-.06.87,0,.88,0a1.47,1.47,0,0,0-.9-.16,3.35,3.35,0,0,0-2,.82,4.59,4.59,0,0,0-1.26,1.78A2.42,2.42,0,0,0,298.92,17.67Z"/><path class="cls-5" d="M314.44,24.37l.16,0a3.05,3.05,0,0,0,.47.06,4.56,4.56,0,0,0,1.82-.24,2.47,2.47,0,0,0,1.14-.69.73.73,0,0,0,.11-.77,1.14,1.14,0,0,0-.65-.53c-.26-.1-.55-.16-.82-.26a4.78,4.78,0,0,1-.81-.36,5.16,5.16,0,0,1-1.48-1.22l-.12.15a3.06,3.06,0,0,0,3.56-.48l.11-.11-.13-.06a7,7,0,0,1-2.52-2.17l-.14.18a4.21,4.21,0,0,0,4.18-.68l.14-.11.15-.13-.19-.07a3.87,3.87,0,0,1-1.59-1.21,13,13,0,0,1-1.13-1.65,10.77,10.77,0,0,0-1.14-1.6,7.9,7.9,0,0,0-1.41-1.25A8.11,8.11,0,0,0,308,9.82a8.33,8.33,0,0,0-3.89,1.9A5.67,5.67,0,0,0,303,12.9a13,13,0,0,1,1.14-1.11A8.31,8.31,0,0,1,308,10a7.74,7.74,0,0,1,2.95,0,8.29,8.29,0,0,1,3.1,1.35,8.65,8.65,0,0,1,2.48,2.8,13.55,13.55,0,0,0,1.14,1.69,4.17,4.17,0,0,0,1.68,1.27l0-.2-.12.11a4,4,0,0,1-3.94.64l-.37-.14.23.32a7.17,7.17,0,0,0,2.61,2.22l0-.17a2.89,2.89,0,0,1-3.31.46l-.48-.27.35.42a5.47,5.47,0,0,0,1.54,1.25,4.81,4.81,0,0,0,.85.36c.28.1.56.15.81.25a1,1,0,0,1,.58.44.63.63,0,0,1-.09.63,2.34,2.34,0,0,1-1.07.66,4.71,4.71,0,0,1-1.77.29C314.66,24.4,314.44,24.36,314.44,24.37Z"/><path class="cls-10" d="M305.66,33.57l2.72-1.21a4.44,4.44,0,0,1,.55,1.14,1.53,1.53,0,0,1-.14,1.22,2,2,0,0,1-1,.66,1.76,1.76,0,0,1-1,.15,1.37,1.37,0,0,1-.86-.79,4.23,4.23,0,0,1-.26-1.17"/><path class="cls-1" d="M306.78,35.53s.1.06.3.07a2,2,0,0,0,.84-.17,1.79,1.79,0,0,0,1-.76,1.82,1.82,0,0,0,0-1.56,6.84,6.84,0,0,0-.44-.81l-.05-.09-.1,0c-.78.35-1.45.66-1.93.9a3.85,3.85,0,0,0-.74.41,3.21,3.21,0,0,0,.8-.28c.5-.19,1.18-.48,2-.82l-.15,0a7.29,7.29,0,0,1,.42.78,1.61,1.61,0,0,1,.05,1.37,1.75,1.75,0,0,1-.9.71,2.63,2.63,0,0,1-.77.23C306.89,35.53,306.78,35.51,306.78,35.53Z"/><path class="cls-9" d="M289.08,87c.07.15,1.16,17.56,1.16,17.56a1.17,1.17,0,0,1-.58,1.31c-.8.37-7,2.46-7,2.46l-1,1.77.36,2.55s.91.17,1.07-.22a8.16,8.16,0,0,0,.27-1.57l0-.8,1.56-.92a5.28,5.28,0,0,0-.71,1.72,32.08,32.08,0,0,0,.68,3.48,22.14,22.14,0,0,0,2.31,1.18l1.57.89h1.54a2,2,0,0,0,1.16.2c.45-.14.76-.73.59-1s-1-.5-1-.5l-.48-.73.11-2.45.93-1.15.79.23S291,112.4,291,113s0,1.35.51,1.54,1.54-1,1.54-1l1.94-3.51.17-4.86,2-17.59Z"/><path class="cls-10" d="M289.52,108.64s-.17.15-.42.44l-1,1.24v0h0a7,7,0,0,0-.3,2.33,5.2,5.2,0,0,0,.34,1.76,3.93,3.93,0,0,0,.86,1.19,7.12,7.12,0,0,0,.75.63,1.22,1.22,0,0,0,.3.19s-.37-.35-.93-.94a3.85,3.85,0,0,1-.78-1.16,5.13,5.13,0,0,1-.3-1.68,7.38,7.38,0,0,1,.25-2.25l0,0c.4-.53.73-1,.95-1.3A2,2,0,0,0,289.52,108.64Z"/><path class="cls-10" d="M287.27,108.64a3.83,3.83,0,0,0-.82.57h0a1.21,1.21,0,0,0-.64,1c0,.44-.05.9-.08,1.38s0,.93-.05,1.36a3.35,3.35,0,0,0,.1,1.13c.2.65.62.85.62.82A2,2,0,0,1,286,114a11,11,0,0,1,0-2.43c0-.48,0-.94.06-1.37a1.05,1.05,0,0,1,.5-.84h0A4.27,4.27,0,0,0,287.27,108.64Z"/><path class="cls-8" d="M324.25,189.56l-.85,11.26s11.18,3.83,11.23,5.93l-21.93-.05.61-17.61Z"/><g class="cls-11"><path class="cls-2" d="M316.66,199.6a.9.9,0,0,0-.66,1,.86.86,0,0,0,1,.66.94.94,0,0,0,.7-1.06.9.9,0,0,0-1.1-.57"/></g><g class="cls-11"><path class="cls-2" d="M312.7,206.7l.06-1.77,21.17.78a1.53,1.53,0,0,1,.81,1.2Z"/></g><path class="cls-1" d="M323.76,200.73c0,.1-.55.13-1.09.45s-.84.76-.93.72.08-.66.74-1S323.78,200.63,323.76,200.73Z"/><path class="cls-1" d="M326,201.77c0,.1-.45.27-.84.7s-.5.92-.61.91-.15-.62.34-1.15S326,201.67,326,201.77Z"/><path class="cls-1" d="M327.21,204.57c-.1,0-.22-.52.07-1.1s.81-.78.85-.69-.28.39-.51.86S327.32,204.56,327.21,204.57Z"/><path class="cls-1" d="M323.67,198.14c-.05.09-.54-.07-1.14-.06s-1.09.19-1.14.1.42-.46,1.13-.47S323.72,198.05,323.67,198.14Z"/><g class="cls-12"><polygon points="323.76 196.01 323.61 198.02 313.01 197.83 313.08 195.69 323.76 196.01"/></g><path class="cls-1" d="M323.8,195.86a2.17,2.17,0,0,1-1.1-.05,4.82,4.82,0,0,1-1.13-.4,4.33,4.33,0,0,1-.62-.36,1.28,1.28,0,0,1-.32-.27.46.46,0,0,1,0-.57.57.57,0,0,1,.48-.22,1.25,1.25,0,0,1,.41.07,4.06,4.06,0,0,1,.67.26,4.19,4.19,0,0,1,1,.7,1.89,1.89,0,0,1,.61.92c-.05,0-.29-.31-.79-.72a4.28,4.28,0,0,0-1-.59,3.77,3.77,0,0,0-.62-.22c-.23-.07-.42-.08-.49,0s0,.06,0,.13a1,1,0,0,0,.24.19,5.23,5.23,0,0,0,.56.36,6.74,6.74,0,0,0,1,.45A7.92,7.92,0,0,1,323.8,195.86Z"/><path class="cls-1" d="M323.65,196a1.82,1.82,0,0,1-.25-1.07,3.71,3.71,0,0,1,.2-1.2,3.51,3.51,0,0,1,.31-.65.89.89,0,0,1,.72-.53.53.53,0,0,1,.45.32,1.8,1.8,0,0,1,.09.41,2.27,2.27,0,0,1,0,.74,2.53,2.53,0,0,1-.51,1.12c-.45.55-.9.66-.91.62s.35-.25.7-.78a2.42,2.42,0,0,0,.38-1,2.2,2.2,0,0,0,0-.63c0-.24-.11-.43-.19-.41s-.3.16-.4.35a4,4,0,0,0-.3.58,4.12,4.12,0,0,0-.25,1.09C323.61,195.59,323.71,196,323.65,196Z"/><path class="cls-8" d="M323.72,187.2l8.42,6.77s-4.64,10.31-3.21,11.71l14.3-15.33-12.68-11.08Z"/><g class="cls-11"><path class="cls-2" d="M335.69,188.48a.85.85,0,0,1,1.13.19.84.84,0,0,1-.18,1.12.92.92,0,0,1-1.2-.21.88.88,0,0,1,.32-1.15"/></g><g class="cls-11"><path class="cls-2" d="M343.23,190.35,342,189.24l-13.29,15.28a1.44,1.44,0,0,0,.31,1.34Z"/></g><path class="cls-1" d="M331.83,194.16c.08.06.45-.29,1-.46s1.08-.09,1.11-.18-.51-.37-1.21-.16S331.75,194.11,331.83,194.16Z"/><path class="cls-1" d="M331.08,196.42c.06.08.48-.14,1-.12s1,.24,1,.16-.33-.51-1-.52S331,196.35,331.08,196.42Z"/><path class="cls-1" d="M332.26,199.08c.07-.06-.22-.5-.82-.67s-1.07.05-1,.14.46.06,1,.21S332.18,199.15,332.26,199.08Z"/><path class="cls-1" d="M330.09,192.4c.1,0,.3-.42.7-.83s.84-.63.81-.73-.59,0-1.06.48S330,192.39,330.09,192.4Z"/><g class="cls-12"><polygon points="325.39 188.54 326.89 189.75 334.07 182.35 332.25 180.75 325.39 188.54"/></g><path class="cls-1" d="M328.41,191a2.09,2.09,0,0,0,.69-.8,5.49,5.49,0,0,0,.46-1.05,4.39,4.39,0,0,0,.15-.67,1,1,0,0,0,0-.4.44.44,0,0,0-.38-.39.55.55,0,0,0-.47.18,1.43,1.43,0,0,0-.21.34,3.44,3.44,0,0,0-.26.64,3.57,3.57,0,0,0-.16,1.15,1.76,1.76,0,0,0,.25,1c.05,0,0-.4,0-1a4.06,4.06,0,0,1,.21-1,4.83,4.83,0,0,1,.25-.58c.11-.21.23-.35.34-.33s.05,0,.07.1a1,1,0,0,1,0,.29,5.84,5.84,0,0,1-.13.63,5.22,5.22,0,0,1-.37,1A8,8,0,0,0,328.41,191Z"/><path class="cls-1" d="M328.61,191s-.11-.41-.58-.87a3.35,3.35,0,0,0-1-.65,4.12,4.12,0,0,0-.65-.21.87.87,0,0,0-.84.16.5.5,0,0,0-.07.52,1.54,1.54,0,0,0,.22.34,2.59,2.59,0,0,0,.54.46,2.39,2.39,0,0,0,1.11.37c.68,0,1.05-.2,1-.23a9.53,9.53,0,0,1-1,0,2.35,2.35,0,0,1-1-.4,1.92,1.92,0,0,1-.45-.41c-.14-.17-.23-.35-.15-.4s.31-.1.5,0a3,3,0,0,1,.6.18,3.78,3.78,0,0,1,.92.53C328.35,190.7,328.56,191,328.61,191Z"/><path class="cls-1" d="M332.56,108.77s-2.16,30.64-3.14,38.83c-.62,5.21-3.63,49-3.63,49l-15.14-.47.56-60.7.3-11.24,1.58-18.71Z"/><path class="cls-1" d="M335,180.11l-10,10.16s-31.7-30.94-32.93-33.16,1.17-28.57,1.17-28.57l1.27-23.41,20.59.33-3.52,18.75-2,27.57.5.52Z"/><path class="cls-5" d="M305.78,171.45a.58.58,0,0,0,.08.1l.26.26,1,1,3.87,3.86,13.84,13.7.08.07.07-.08,10-10.15.07-.08-.07-.08-8.21-9.16c-6.29-7-12.21-13.58-17.25-19.2l0,.08c.59-8.25,1.08-15.14,1.42-20,.16-2.41.29-4.31.38-5.62,0-.64.07-1.13.09-1.48l0-.38v-.13s0,.05,0,.13l0,.38-.13,1.48c-.1,1.3-.25,3.2-.43,5.61-.37,4.83-.88,11.72-1.5,20v0l0,0,17.23,19.22,8.22,9.15v-.16l-10,10.18H325L311.09,176.6l-3.91-3.81-1-1-.27-.25Z"/><path class="cls-5" d="M315.71,156.06a5.86,5.86,0,0,0,1,.8,24,24,0,0,0,2.51,1.64,22.9,22.9,0,0,0,2.7,1.31,5.26,5.26,0,0,0,1.17.4,9.62,9.62,0,0,0-1.11-.55c-.69-.33-1.63-.8-2.64-1.37s-1.9-1.14-2.53-1.57A7.91,7.91,0,0,0,315.71,156.06Z"/><path class="cls-5" d="M304.85,152.57a11.4,11.4,0,0,0,2.25-.23,10.1,10.1,0,0,0,2.22-.47,11.4,11.4,0,0,0-2.25.23A10.1,10.1,0,0,0,304.85,152.57Z"/><polygon class="cls-13" points="320 44.35 329.01 47.48 330 71.92 328.95 88.11 333.3 107.39 333.74 116.08 309.18 123.39 306.58 111.41 304.92 123.03 297.36 114.14 294.01 110.72 294.01 105.9 294.01 89.33 294.28 66.24 294.14 47.91 302.62 43.87 304.41 42.52 305.72 47.09 308.49 55.17 311.75 47.27 317.63 41.35 320 44.35"/><g class="cls-12"><path d="M318.39,82.16a6.53,6.53,0,0,0,3.07,1.76,5.85,5.85,0,0,0,4.5-1.6,28.91,28.91,0,0,1,3.81-3.11l-.29,1.05a22.79,22.79,0,0,1-5.57,7.91,6.56,6.56,0,0,1-3.7,2c-2.19.19-4.11-1.54-5.21-3.44s-1.67-4.1-2.91-5.92a13.26,13.26,0,0,1-2.94-6.4,40.11,40.11,0,0,1-.49-7.1A33.57,33.57,0,0,0,318.39,82.16Z"/></g><path class="cls-13" d="M310.66,73.41c-.94,1.11-.79,1.51-.35,3a1.29,1.29,0,0,0,1.21.89c1.83,3.12,5.22,9,8.72,9.21,4.37.22,9.07-4.6,10.94-10.35,0,0,4.71-16.26,3.31-22A9.65,9.65,0,0,0,329,47.49l-8.94,20.23-3.67-1.78Z"/><path class="cls-13" d="M294.21,47.33s-3.78,2.66-4.85,5.83-1.53,12.29-1.31,16.18.11,10.62.11,10.62l.38,3.56c-1.63,1.38-.77,3.23-.68,3.83.22,1.37,9.6.47,9.6.47l-2-24.59Z"/><path class="cls-1" d="M321.27,69.35s.06-.09.09-.28a2.28,2.28,0,0,0,0-.79,3.26,3.26,0,0,0-.42-1.11,5.88,5.88,0,0,0-.86-1.16,3.4,3.4,0,0,0-1.21-.8,2.2,2.2,0,0,0-1.94.16c-.16.1-.24.16-.23.18a6.42,6.42,0,0,1,1-.29,2.28,2.28,0,0,1,1.09.15,3.46,3.46,0,0,1,1.12.77,3.75,3.75,0,0,1,1.36,3.17Z"/><path class="cls-1" d="M320.57,67.08c.06,0,1-2.67,2.13-6s2-6,1.9-6.07-1,2.66-2.13,6S320.51,67.06,320.57,67.08Z"/><path class="cls-1" d="M310.66,73.41l-.06.06a1.92,1.92,0,0,0-.17.19,2.3,2.3,0,0,0-.47.86,3.2,3.2,0,0,0,.17,1.54l.12.45a1.32,1.32,0,0,0,1.27.93l-.07,0c.77,1.33,1.68,2.94,2.87,4.62a21.85,21.85,0,0,0,2.05,2.5,7.71,7.71,0,0,0,2.87,2,4.31,4.31,0,0,0,.88.19c.3,0,.59,0,.88,0s.57-.09.86-.13l.82-.23a10.05,10.05,0,0,0,2.81-1.55,15.69,15.69,0,0,0,3.61-4,18.54,18.54,0,0,0,1.66-3.26c.16-.39.25-.72.33-.93a2.31,2.31,0,0,0,.09-.34,1.58,1.58,0,0,0-.14.32c-.09.21-.19.53-.37.92A19.68,19.68,0,0,1,329,80.64a16,16,0,0,1-3.6,4,10,10,0,0,1-2.76,1.5c-.26.07-.52.16-.79.22s-.55.1-.83.12a7.85,7.85,0,0,1-.84,0,3.42,3.42,0,0,1-.83-.18,7.37,7.37,0,0,1-2.77-1.91,21.61,21.61,0,0,1-2-2.46c-1.2-1.66-2.12-3.25-2.91-4.57l0,0h-.05a1.28,1.28,0,0,1-.9-.4,2,2,0,0,1-.36-.85,3.2,3.2,0,0,1-.21-1.48,2.38,2.38,0,0,1,.42-.85A1.44,1.44,0,0,0,310.66,73.41Z"/><path class="cls-1" d="M311.52,77.35a2,2,0,0,0,.47-.18c.29-.13.71-.34,1.22-.63A27.5,27.5,0,0,0,317,74a21.73,21.73,0,0,0,3.27-3.13A11.13,11.13,0,0,0,321,69.8a1.77,1.77,0,0,0,.23-.45s-.41.59-1.17,1.45a24.75,24.75,0,0,1-3.28,3,35,35,0,0,1-3.7,2.55C312.14,77,311.5,77.32,311.52,77.35Z"/><path class="cls-1" d="M321.14,69.36A6.54,6.54,0,0,1,323,70.52a6.16,6.16,0,0,1,1.16,1.84s0-.26-.12-.66a3.83,3.83,0,0,0-2.24-2.22C321.4,69.34,321.14,69.33,321.14,69.36Z"/><path class="cls-1" d="M294.35,57.11a1.19,1.19,0,0,0,0,.33c0,.24,0,.56,0,1,0,.85,0,2,0,3.5,0,3,0,7-.06,11.54S294.12,82,294.07,85l-.05,3.5v1a1.64,1.64,0,0,0,0,.33,1.39,1.39,0,0,0,0-.33c0-.24,0-.56.05-1,0-.85.08-2,.13-3.5.1-3,.19-7,.23-11.54s0-8.59,0-11.54c0-1.46-.05-2.65-.06-3.5,0-.39,0-.71,0-1A1.39,1.39,0,0,0,294.35,57.11Z"/><path class="cls-1" d="M305.46,58.75s0,0,0,.13v.4c0,.36,0,.87.06,1.51.05,1.34.11,3.24.2,5.58.16,4.71.31,11.22.42,18.41s.22,13.69.29,18.42c.06,2.35.1,4.25.14,5.58,0,.65,0,1.16.05,1.52l0,.4a1.16,1.16,0,0,1,0,.13s0,0,0-.14v-.39c0-.36,0-.87,0-1.52,0-1.33,0-3.24-.06-5.58-.06-4.73-.14-11.23-.22-18.42s-.29-13.7-.49-18.42c-.1-2.35-.2-4.26-.28-5.57,0-.65-.08-1.15-.1-1.52l0-.39A1.11,1.11,0,0,0,305.46,58.75Z"/><path class="cls-1" d="M299.46,88.84c0,.07,3.1,1.3,7,2.76s7,2.6,7.05,2.54-3.09-1.29-7-2.76S299.48,88.78,299.46,88.84Z"/><path class="cls-1" d="M310.4,51.2a5.73,5.73,0,0,0,.56-.92l1.39-2.49h-.18l2.12,3,.08.13.1-.12.3-.34c1.47-1.67,2.79-3.18,3.73-4.29l1.11-1.32a3.66,3.66,0,0,0,.39-.5,2.2,2.2,0,0,0-.45.44l-1.17,1.27c-1,1.08-2.32,2.58-3.79,4.25l-.3.34h.19l-2.14-3-.1-.14-.07.15-1.31,2.53A7.23,7.23,0,0,0,310.4,51.2Z"/><path class="cls-1" d="M298.88,92.09s4.89,3,11,6.63S321,105.2,321,105.14s-4.89-3-11-6.63S298.91,92,298.88,92.09Z"/><path class="cls-1" d="M303.35,88.11a1.21,1.21,0,0,1,.42-.68.87.87,0,0,1,.8-.1.85.85,0,0,1,.53.78.84.84,0,0,1-1.33.67,1.21,1.21,0,0,1-.42-.67s0,.08,0,.24a.9.9,0,0,0,.33.57,1,1,0,0,0,1,.17,1,1,0,0,0,0-2,1,1,0,0,0-1,.17.9.9,0,0,0-.33.57C303.31,88,303.34,88.11,303.35,88.11Z"/><path class="cls-1" d="M302.54,73.7A1.21,1.21,0,0,1,303,73a.83.83,0,0,1,.79-.09.82.82,0,0,1,.54.77.84.84,0,0,1-.54.78.86.86,0,0,1-.79-.1,1.21,1.21,0,0,1-.42-.68s0,.08,0,.24a1,1,0,0,0,.34.57,1,1,0,0,0,1,.17,1,1,0,0,0,0-2,1,1,0,0,0-1,.17,1,1,0,0,0-.34.57C302.5,73.62,302.53,73.7,302.54,73.7Z"/><path class="cls-1" d="M288.54,83.52a4.28,4.28,0,0,0,.82.12c.51.06,1.2.18,2,.31a17.13,17.13,0,0,0,2,.24,2.89,2.89,0,0,0,.84,0,3.78,3.78,0,0,0-.82-.13c-.51-.06-1.21-.18-2-.31a17,17,0,0,0-2-.24A2.33,2.33,0,0,0,288.54,83.52Z"/><g class="cls-12"><path d="M312.55,93.8a17,17,0,0,1-12.4-4.67c4,1.57,8.5,3,12.4,4.67"/></g><path class="cls-10" d="M298.53,43.87c-.69.49-1.93,1.26-1.93,1.26l-.27,3.52,2.12.45.12-4s1.37-.41,1.28-1v0C299.72,43.46,299.06,43.5,298.53,43.87Z"/><path class="cls-1" d="M310.37,43.17l-8.21,6.23a.65.65,0,0,1-.4.14h-7.64a.67.67,0,0,1-.67-.67v-.09a.68.68,0,0,1,.27-.54l8.46-6.15a.7.7,0,0,1,.4-.12H310a.65.65,0,0,1,.66.6h0A.64.64,0,0,1,310.37,43.17Z"/><path class="cls-14" d="M309.82,42.31l-.19.13c-1.23.92-8.17,6-8.17,6h-7.4l8.42-6.13"/><path class="cls-9" d="M306,42.5,307.6,45a29.25,29.25,0,0,1,2.25,4.66c.14,1,.47,3.35.47,3.35l6.38,12.51-6.38,8.31-5.26-17.25s-5.13-2.27-5.47-2.82a9.36,9.36,0,0,1-.69-2,5,5,0,0,1-1.91-.52,10.14,10.14,0,0,1-2.16-2.43L294.09,47a.05.05,0,0,1,0-.07l.39-.23a1.09,1.09,0,0,1,.68-.14,1.22,1.22,0,0,1,1,.69,3.86,3.86,0,0,0,1,1.37l.62.34,4.57.15a3.79,3.79,0,0,0,2.9-1.2l.16-.18V45.92a7.86,7.86,0,0,1-.77-1.93A1.23,1.23,0,0,1,306,42.5Z"/><path class="cls-10" d="M306,42.5a.74.74,0,0,0-.28,0,1.27,1.27,0,0,0-.7.42,1.33,1.33,0,0,0-.21,1.3,8,8,0,0,0,.7,1.71v0c0,.55,0,1.18,0,1.85v0a3.81,3.81,0,0,1-3.19,1.34l-4.39-.15h0l-.62-.35h0a3.79,3.79,0,0,1-.86-1.07c-.06-.1-.1-.2-.16-.32a1.17,1.17,0,0,0-1-.67,1.59,1.59,0,0,0-.8.1l-.19.09a.65.65,0,0,0-.17.16.52.52,0,0,0-.05.47l.62,1.48h0a9.76,9.76,0,0,0,1.65,2,5.35,5.35,0,0,0,.5.45,2.07,2.07,0,0,0,.64.3,6.85,6.85,0,0,0,1.35.26l-.09-.09a9.38,9.38,0,0,0,.61,1.93.87.87,0,0,0,.37.41c.14.11.29.19.44.29s.61.33.92.49c1.24.64,2.54,1.24,3.87,1.83l-.06-.07L307.8,66c.82,2.7,1.63,5.33,2.41,7.88l.06.22.14-.18c2.24-2.92,4.38-5.71,6.37-8.32l0,0,0-.06L310.39,53v0q-.19-1.35-.36-2.55a7.68,7.68,0,0,0-.22-1.18,9.49,9.49,0,0,0-.44-1c-.62-1.29-1.22-2.35-1.72-3.22s-1-1.46-1.26-1.91l-.33-.49a1,1,0,0,0-.12-.16l.1.18.31.5c.29.44.7,1.09,1.23,1.93s1.07,1.94,1.68,3.22a9.44,9.44,0,0,1,.42,1,5.74,5.74,0,0,1,.2,1.15c.11.8.23,1.65.35,2.55v0h0l6.35,12.51v-.11l-6.38,8.31.2,0c-.78-2.55-1.58-5.19-2.4-7.89-1-3.23-1.95-6.37-2.86-9.37v0l-.05,0c-1.33-.59-2.63-1.19-3.87-1.82l-.91-.49a3.74,3.74,0,0,1-.42-.27.76.76,0,0,1-.31-.33,10.4,10.4,0,0,1-.59-1.87l0-.08h-.08a6.43,6.43,0,0,1-1.31-.24,2.14,2.14,0,0,1-.57-.27c-.17-.13-.33-.28-.49-.43a9.88,9.88,0,0,1-1.62-1.95h0l-.63-1.47a.33.33,0,0,1,0-.29.61.61,0,0,1,.27-.18,1.44,1.44,0,0,1,.71-.09,1.19,1.19,0,0,1,.62.29,2.33,2.33,0,0,1,.36.6,4,4,0,0,0,.91,1.12h0l.61.34h0l4.39.13a4,4,0,0,0,3.29-1.41l0,0v0c0-.67,0-1.3,0-1.85h0a8.56,8.56,0,0,1-.72-1.68,1.26,1.26,0,0,1,.85-1.68C305.86,42.5,306,42.51,306,42.5Z"/><path class="cls-10" d="M298.54,51.8a3.48,3.48,0,0,0,1.26.26,3.41,3.41,0,0,0,1.28,0,3.51,3.51,0,0,0-1.25-.25A3.91,3.91,0,0,0,298.54,51.8Z"/><path class="cls-1" d="M288.8,42.61l-.12-.15-.37-.39a6.64,6.64,0,0,1-.57-.64l-.32-.42-.18-.22c-.06-.08-.11-.17-.17-.26a10.33,10.33,0,0,1-.7-1.17c-.1-.22-.23-.44-.33-.68l-.29-.75a11.09,11.09,0,0,1-.56-3.51,10.68,10.68,0,0,1,.67-3.5c.1-.25.19-.51.29-.75l.34-.68.16-.32.19-.29.35-.56a13.79,13.79,0,0,1,1.22-1.55l.36-.4a.8.8,0,0,0,.12-.15.67.67,0,0,0-.15.13l-.38.38a12.11,12.11,0,0,0-1.27,1.53c-.12.17-.24.36-.36.55l-.19.29-.17.33c-.12.22-.23.45-.36.68s-.2.5-.3.76a10.62,10.62,0,0,0-.69,3.55,10.8,10.8,0,0,0,.59,3.56l.3.76c.09.24.23.46.34.69A9.06,9.06,0,0,0,287,40.6l.17.25.19.23.34.41a5.17,5.17,0,0,0,.59.62l.39.38Z"/><path class="cls-1" d="M292,40.3a11.51,11.51,0,0,1-1.23-1.52c-.07-.13-.16-.26-.24-.41l-.22-.46c0-.09-.08-.17-.11-.25l-.1-.26c-.06-.18-.13-.36-.18-.56a9.32,9.32,0,0,1-.35-2.56,9,9,0,0,1,.38-2.56l.18-.55c.07-.18.15-.34.22-.51a5.94,5.94,0,0,1,.47-.87,5.73,5.73,0,0,1,.46-.66,4.34,4.34,0,0,1,.4-.47,4.21,4.21,0,0,0,.36-.4,3.23,3.23,0,0,0-.4.35,3.29,3.29,0,0,0-.43.46,4.72,4.72,0,0,0-.49.66,5.52,5.52,0,0,0-.5.87c-.07.17-.16.33-.23.51s-.12.37-.19.57a8.81,8.81,0,0,0-.4,2.6,9.29,9.29,0,0,0,.37,2.61c.05.19.13.38.19.56l.1.27.12.24.23.47.26.41c.09.13.16.26.24.36l.26.3.21.26.21.2A4.19,4.19,0,0,0,292,40.3Z"/><path class="cls-1" d="M295,37.76s-.31-.32-.65-.93a5.64,5.64,0,0,1-.67-2.59,5,5,0,0,1,.63-2.6c.35-.6.69-.89.66-.92l-.24.2a1.68,1.68,0,0,0-.24.27,2.63,2.63,0,0,0-.29.39,4.84,4.84,0,0,0-.69,2.66,5.31,5.31,0,0,0,.74,2.65l.14.22.14.18a1.64,1.64,0,0,0,.24.27C294.93,37.7,295,37.77,295,37.76Z"/></svg>