<svg id="Layer_1" data-name="Layer 1" xmlns="http://www.w3.org/2000/svg" viewBox="0 0 152 159"><defs><style>.cls-1{fill:#f4f9f8;}.cls-2{opacity:0.4;}.cls-3{fill:#006b73;}.cls-4{fill:#ffdad9;}.cls-5{opacity:0.43;}.cls-6{opacity:0.32;}.cls-7{fill:#3d5556;}.cls-8{fill:#fff5eb;}.cls-9{fill:#ffe9e9;}.cls-10{fill:#efefef;}.cls-11{fill:#275459;}.cls-12{fill:#424242;}.cls-13{fill:#401a49;}.cls-14{fill:#1a2e35;}.cls-15{fill:#7e5780;}.cls-16{fill:#efac8f;}.cls-17{fill:#353535;}.cls-18{fill:#ffbf9d;}.cls-19{fill:#ff9a6c;}.cls-20{fill:#141414;}.cls-21{fill:#fff;}.cls-22{fill:#e1e1e1;}.cls-23{fill:#7089f8;}.cls-24{fill:#ffd0c5;}.cls-25{fill:#303030;}.cls-26{fill:#427f7e;}.cls-27{fill:#375a64;}.cls-28{fill:#677f80;}</style></defs><title>Artboard 1privacy</title><path class="cls-1" d="M3.26,158.61H149.77c3.75-15.74,1.53-34.17-7-47.83-4-6.42-9-12-11.23-19.38-2-6.71-2.22-13.81-2.18-20.78.06-11.82.44-24.26-3-35.61C119.3,11.39,97.65-.37,76.37,0c-29.18.52-58.93,18-69.22,49.82C3.28,61.76,3.05,76.46,4.72,88.92c1.11,8.23,2,16.57,1.55,24.89-.5,8.71-3.62,16.06-5.69,24.37C-1,144.59-.3,153.51,3.26,158.61Z"/><g class="cls-2"><rect class="cls-3" x="84.04" y="78.19" width="52.13" height="3.38"/></g><rect class="cls-4" x="88.35" y="18.12" width="44.44" height="58.7"/><g class="cls-5"><rect class="cls-3" x="88.35" y="18.12" width="44.44" height="58.7"/></g><g class="cls-6"><rect class="cls-7" x="90.13" y="19.71" width="42.85" height="56.73"/></g><path class="cls-8" d="M133.3,77.32H87.85V17.61H133.3Zm-44.44-1h43.43V18.62H88.86Z"/><rect class="cls-8" x="110.54" y="18.49" width="1.01" height="58.13"/><rect class="cls-8" x="88.29" y="37.18" width="44.63" height="0.51"/><rect class="cls-8" x="88.29" y="56.06" width="44.63" height="0.51"/><rect class="cls-8" x="84.04" y="75.56" width="52.13" height="3.38"/><rect class="cls-9" x="31.96" y="80.39" width="71.12" height="0.85"/><ellipse class="cls-10" cx="75.79" cy="142.79" rx="60.1" ry="6.25"/><path class="cls-11" d="M45.49,133.93l2,10.59a.41.41,0,0,0,.77,0l3.34-10.36Z"/><path class="cls-11" d="M118.09,130.17l2,10.59a.41.41,0,0,0,.77,0l3.34-10.36Z"/><path class="cls-11" d="M103.06,126.41l2,10.59a.41.41,0,0,0,.77,0l3.34-10.37Z"/><path class="cls-11" d="M32.61,127.29l2,10.58a.41.41,0,0,0,.77,0l3.35-10.37Z"/><path class="cls-10" d="M124.33,130.66l-.29.15h0a13.74,13.74,0,0,1-1.77.77c-11.81,4.16-76.16,2.6-76.16,2.6-2.52-.4-12.23-2.11-16.18-9.31-4.56-8.32-11.27-30.87-7-34.22l9,.13s-2.69-20,22.41-19.59,56.63-2.55,60.25,3c3.26,5,1.1,15.64,3.36,18.82a2.13,2.13,0,0,0,.26.32,2.21,2.21,0,0,0,.68.46c2.33.91,8.2-.08,12.91.88l.42.09c2.72.63,5,2,5.86,4.8C140.36,106.82,134.81,125,124.33,130.66Z"/><path class="cls-12" d="M72.07,134.57c-14.14,0-25.71-.27-26-.27-4.56-.73-12.73-2.91-16.27-9.37-4.77-8.71-11.25-31-6.95-34.37l0,0,8.9.14c-.11-1-.59-8,4.12-13.3,3.83-4.31,10-6.43,18.42-6.3,7.29.12,15.09,0,22.65-.2,18.83-.4,35.1-.75,37.7,3.21,1.79,2.72,2,7.18,2.11,11.11.12,3.23.23,6.28,1.24,7.71a3.48,3.48,0,0,0,.26.3,1.81,1.81,0,0,0,.63.43,17.86,17.86,0,0,0,5.41.42,37.1,37.1,0,0,1,7.49.46l.42.09c3.21.75,5.16,2.34,5.94,4.87,1.15,3.7.32,10.09-2.1,16.29-2.74,7-7,12.48-11.71,15l-.3.16h0a14.51,14.51,0,0,1-1.77.76C115.54,134.07,91.4,134.57,72.07,134.57ZM23,90.77c-1.8,1.47-1.71,7,.25,15.1,1.65,6.88,4.45,14.67,6.79,18.95,3.5,6.37,11.58,8.53,16.09,9.25.63,0,64.45,1.51,76.11-2.6a13.54,13.54,0,0,0,1.76-.76h0l.26-.14h0c4.65-2.5,8.88-7.92,11.6-14.88,2.41-6.16,3.23-12.49,2.1-16.14-.76-2.44-2.65-4-5.78-4.71a2.71,2.71,0,0,0-.41-.09,37.25,37.25,0,0,0-7.44-.46c-2.32,0-4.33,0-5.49-.44a1.94,1.94,0,0,1-.72-.48,2.13,2.13,0,0,1-.28-.33c-1-1.48-1.16-4.42-1.28-7.83-.15-3.9-.32-8.33-2.07-11C112,70.36,95,70.72,77,71.1c-7.55.16-15.36.32-22.65.21-8.33-.14-14.46,2-18.25,6.22-5,5.63-4.06,13.16-4.05,13.24l0,.13Z"/><path class="cls-11" d="M46.16,134.46a.23.23,0,0,1-.11,0c-13.61-9.07-16.83-39.3-16.86-39.6a.2.2,0,0,1,.18-.22.19.19,0,0,1,.21.18c0,.3,3.19,29.87,16.38,39.1-.05-2.92-.09-13.11,1.62-13.64,1-.29,20.24-1.06,38.23-1.53,16.94-.44,37.33-.76,38.33.24,1.79,1.8.26,11.31.19,11.71a.21.21,0,0,1-.23.17.2.2,0,0,1-.16-.23c.44-2.7,1.29-10-.08-11.37-.75-.68-15-.73-38.1-.13-19.16.5-37.25,1.27-38.06,1.52-1.17.36-1.44,8.55-1.34,13.63a.22.22,0,0,1-.1.18Z"/><path class="cls-11" d="M131.17,107.74a35.76,35.76,0,0,1-6.86,11.43l0,.06a.19.19,0,0,1-.15.07.19.19,0,0,1-.13,0,.2.2,0,0,1,0-.28l.07-.08c.93-1.08,1.79-2.17,2.57-3.27h0c.21-.29.41-.58.6-.88a32,32,0,0,0,3.6-7.12,24.1,24.1,0,0,0,1-13l.42.09A24.46,24.46,0,0,1,131.17,107.74Z"/><path class="cls-11" d="M118.22,93.28c-2,3.25-2.81,7.2-3.52,10.73a.19.19,0,0,1-.19.15h0a.2.2,0,0,1-.16-.23c.72-3.6,1.53-7.64,3.65-11A2.13,2.13,0,0,0,118.22,93.28Z"/><path class="cls-11" d="M126.79,115.87h-.06a.2.2,0,0,1-.13-.24,6.41,6.41,0,0,0,.15-3.49,2.91,2.91,0,0,0-2.37-2.16.21.21,0,0,1-.19-.21.2.2,0,0,1,.21-.18,3.29,3.29,0,0,1,2.73,2.44,6.78,6.78,0,0,1-.15,3.7A.21.21,0,0,1,126.79,115.87Z"/><path class="cls-11" d="M47.49,120.54a.21.21,0,0,1-.19-.13,95.3,95.3,0,0,1-3.93-16.06.2.2,0,0,1,.16-.22.2.2,0,0,1,.23.16,93.54,93.54,0,0,0,3.92,16,.19.19,0,0,1-.13.25Z"/><circle class="cls-11" cx="103.47" cy="83.8" r="1.21"/><path class="cls-3" d="M44,61.93a18.86,18.86,0,0,1,4.49,2.15c1.14,1,10.07,14.56,10.07,14.56l8.12,8.18-4.3,3.9s-10.47-13-13.49-17.45S44,61.93,44,61.93Z"/><path class="cls-13" d="M54,77.57a.06.06,0,0,1-.06-.06l-.67-4.74-3.8-2.6a.07.07,0,0,1,0-.06l.33-3.72-5.47-4.14a.06.06,0,0,1,0-.09.07.07,0,0,1,.09,0l5.5,4.16a.09.09,0,0,1,0,.06l-.33,3.72,3.79,2.6s0,0,0,0l.67,4.77a.06.06,0,0,1-.06.07Z"/><path class="cls-14" d="M64.82,88.43s15.6-15.9,23.35-15.19,26.53,31,26.53,31l-11.54,0S91.09,92.76,89.88,92.56,84.54,97,84.54,97L59.38,93.37Z"/><path class="cls-3" d="M109.1,102.73l10.72,2.46c3.68.86,7.1,1.76,7.25,2.77a2,2,0,0,1-2.32,2.16,48.89,48.89,0,0,0-9,.26c-1.71.4-4.13,1.25-7.3-1.11Z"/><path class="cls-14" d="M61.5,91.15S73,87.23,81,90.75,109.51,101,109.51,101l.2,10-26.64-1.61-5.47-3.22L51,105A19.92,19.92,0,0,1,61.5,91.15Z"/><path class="cls-15" d="M109.69,102.06s0,0,0,0C109.43,102,85.8,92.46,81,90.81S65.19,92,65.08,92A.07.07,0,0,1,65,92l0,0-.22-2a.08.08,0,0,1,.06-.08.09.09,0,0,1,.08.06l.21,1.93c1-.25,11.32-2.79,15.92-1.21,4.8,1.66,28.44,11.15,28.68,11.25a.08.08,0,0,1,0,.09A.08.08,0,0,1,109.69,102.06Z"/><path d="M30.85,47.21A5,5,0,0,1,31,48.69a2.85,2.85,0,0,1-.29.75,6.38,6.38,0,0,0-.67,2,2.54,2.54,0,0,0,.54,2,2.77,2.77,0,0,1,.64.77,4.06,4.06,0,0,1,.06,1,1.64,1.64,0,0,0,.62,1A4.52,4.52,0,0,0,33,56.8a8.91,8.91,0,0,0,2.3.72,3.7,3.7,0,0,0,2.34-.38A4.48,4.48,0,0,0,38.91,56a9.18,9.18,0,0,0,1.94-6.44,5.66,5.66,0,0,0-4.55-5.5,14.9,14.9,0,0,0-2.49-.33,2,2,0,0,0-1.44.22A3.37,3.37,0,0,0,30.85,47.21Z"/><path class="cls-16" d="M34.12,61.21s.82,5.84,5.73,6.55c3.34.48,4.06-1.4,4.06-1.4V63.74L44,61.06v0l0-.8s-8.42-5.9-8.46-5.7C35.5,55.07,34.12,61.21,34.12,61.21Z"/><path class="cls-17" d="M38.59,58.28a7.62,7.62,0,0,0,5.31,5.46l.15-2.69a8.68,8.68,0,0,1-1.35-.25h0l-.24-.07-.33-.11a2.34,2.34,0,0,0-.24-.09l-.15-.07A9,9,0,0,1,38.59,58.28Z"/><path class="cls-18" d="M50.22,51.54c0,.14,0,.27,0,.4a12.05,12.05,0,0,1-1,5.53l-.11.22a3.37,3.37,0,0,1-.19.32l0,.05a6.44,6.44,0,0,1-5.8,2.84h0a8.1,8.1,0,0,1-5-2.15s0,0,0,0a11.08,11.08,0,0,1-1.84-2.21h0c-.16-.25-.32-.52-.47-.79a.63.63,0,0,0-.07-.12l-.06-.13c-.23-.44-.68-.83-1-1.26A8.75,8.75,0,0,1,34,52.78a7.85,7.85,0,0,1-.39-1.44,3,3,0,0,1-.07-.52,7.14,7.14,0,0,1-.06-.93v-.06a8.51,8.51,0,0,1,6.62-8.22A8.13,8.13,0,0,1,44.8,42h0a8.12,8.12,0,0,1,2.41,1.52,8,8,0,0,1,3.09,5.57,13.92,13.92,0,0,1-.08,2.24Z"/><path d="M36.41,51.93a2.11,2.11,0,0,0,1.39-1.72c0-.34,0-.68,0-1,.08-1,.73-1.79.77-2.74a2.85,2.85,0,0,0-.32-1.37,2.27,2.27,0,0,0-.5-.72,2.94,2.94,0,0,0-1.92-.61,3.21,3.21,0,0,0-1.07.08,1.26,1.26,0,0,0-.81.65c-.07.18-.09.37-.16.55a4.28,4.28,0,0,1-.43.75A2.92,2.92,0,0,0,33,47.93a2.66,2.66,0,0,1,.16.83c0,.48-.4.88-.41,1.35a1,1,0,0,0,.54.88c.28.12.56.1.85.2.5.18.94.51,1.46.65C35.83,51.89,36.22,51.87,36.41,51.93Z"/><path class="cls-18" d="M37,51.68a7.06,7.06,0,0,0-1.91-1.29,2.51,2.51,0,0,0-2.25.09,2.35,2.35,0,0,0-.7,2.79,3.94,3.94,0,0,0,2.35,2.31,4.21,4.21,0,0,0,3.37-.23C38.07,53.71,38.13,52.6,37,51.68Z"/><path class="cls-13" d="M34.1,53.93a.07.07,0,0,1-.07-.06,2.53,2.53,0,0,1,.61-2.19.07.07,0,1,1,.11.1,2.46,2.46,0,0,0-.57,2.06.08.08,0,0,1-.06.09Z"/><path class="cls-13" d="M35.74,53.65s-.05,0-.07,0l0-.05s0,0,0,0a1.75,1.75,0,0,0-1.35-1,.1.1,0,0,1-.07-.09.09.09,0,0,1,.09-.07,1.92,1.92,0,0,1,1.51,1.2.09.09,0,0,1,0,.1Z"/><circle class="cls-19" cx="40.2" cy="54.93" r="3.84" transform="matrix(1, -0.07, 0.07, 1, -3.79, 2.99)"/><path class="cls-19" d="M50.23,51.94a12.05,12.05,0,0,1-1,5.53,3.63,3.63,0,0,1,1-5.53Z"/><path class="cls-20" d="M48.18,50.71a.76.76,0,1,0,.76-.76A.76.76,0,0,0,48.18,50.71Z"/><path class="cls-20" d="M42.65,50.79a.9.9,0,1,0,.89-.89A.89.89,0,0,0,42.65,50.79Z"/><path class="cls-20" d="M43.68,49.33l-.27.05c-.28.06-1.75.39-1.63-.27a.69.69,0,0,1,.1-.19A2.39,2.39,0,0,1,43.49,48c.41,0,1,.2.88.81C44.28,49.17,44,49.27,43.68,49.33Z"/><path class="cls-20" d="M48.67,49.11a2.79,2.79,0,0,0,.63.1c.24,0,.79.07.89-.27a.39.39,0,0,0,0-.26,1.38,1.38,0,0,0-.76-.64,1.39,1.39,0,0,0-.94-.07.57.57,0,0,0-.4.68A.8.8,0,0,0,48.67,49.11Z"/><path class="cls-13" d="M47.43,54.42a.08.08,0,0,1-.07-.05.07.07,0,0,1,0-.08,1.06,1.06,0,0,0,.65-.82,6.23,6.23,0,0,0-.63-2.22.06.06,0,0,1,0-.09.07.07,0,0,1,.09,0,6.74,6.74,0,0,1,.65,2.31,1.17,1.17,0,0,1-.74.92Z"/><path class="cls-13" d="M46.58,54.37a.08.08,0,0,1-.06,0,.28.28,0,0,0-.24-.19.2.2,0,0,0-.21.15.06.06,0,0,1-.07.06.06.06,0,0,1-.06-.08.32.32,0,0,1,.35-.27.44.44,0,0,1,.36.27.08.08,0,0,1,0,.09Z"/><path class="cls-13" d="M46.27,55.88l-.31,0a1.65,1.65,0,0,1-1-.65.06.06,0,0,1,0-.09.08.08,0,0,1,.1,0,1.46,1.46,0,0,0,.92.59,1.56,1.56,0,0,0,1.08-.19.07.07,0,0,1,.09,0,.08.08,0,0,1,0,.1A1.75,1.75,0,0,1,46.27,55.88Z"/><path d="M37.07,45.49a1.05,1.05,0,0,0,.86.61,1.43,1.43,0,0,0,1-.32,8.73,8.73,0,0,0,.73-.76,2.85,2.85,0,0,1,2.54-.74,13.2,13.2,0,0,0,2.16.62A4.92,4.92,0,0,0,47.54,44a8.57,8.57,0,0,1,1.76,2,2.58,2.58,0,0,0,1.37-1.81,2.34,2.34,0,0,0-.88-2,9.37,9.37,0,0,1-1.45-1,4.14,4.14,0,0,1-.54-1A4,4,0,0,0,43.66,38c-.71.15-1.35.52-2.06.66-1.45.29-3-.45-4.43-.2a3.3,3.3,0,0,0-2.48,2,6.33,6.33,0,0,1-.37,1c-.26.48-.75.82-1,1.31a1.59,1.59,0,0,0,.73,2.06,3.67,3.67,0,0,0,.72.2C35.42,45.23,36.42,45.36,37.07,45.49Z"/><path class="cls-13" d="M36.24,52.48c0,.16.1.35.25.41s.38,0,.51-.2a3.46,3.46,0,0,0,.76-2.27,1.54,1.54,0,0,0,0-.57.65.65,0,0,0-.36-.43c-.59-.23-1.16.56-1.29,1.06A4.69,4.69,0,0,0,36.24,52.48Z"/><path class="cls-21" d="M34.35,60s5.57,3.69,9.67,2l.46,1.48a113.38,113.38,0,0,0,9.2,13.75A83.36,83.36,0,0,0,64.82,88.43L57.3,95A36.25,36.25,0,0,1,41.47,80.25a103.4,103.4,0,0,1-8.39-18l1-1Z"/><path class="cls-11" d="M70.21,53.12l-.5,19a.4.4,0,0,1-.39.38l-14.19.31h-.25a.39.39,0,0,1-.4-.41l.57-18.84a.81.81,0,0,1,.46-.7h0a.54.54,0,0,1,.21,0l.08,0,13.59-.48A.79.79,0,0,1,70.21,53.12Z"/><path class="cls-13" d="M55.56,54.27c-.16,2.79-.59,18-.43,18.51v0h-.2c-.16-.94.28-15.94.43-18.55a10.92,10.92,0,0,1,.15-1.4h0a.54.54,0,0,1,.21,0A9,9,0,0,0,55.56,54.27Z"/><path class="cls-21" d="M60.53,62a2.57,2.57,0,0,0,1,2.72,2.39,2.39,0,0,0,2.86-.24,2.76,2.76,0,0,0,.77-1.82A2.36,2.36,0,0,0,60.53,62Z"/><path class="cls-18" d="M62.42,72.41s-1.85-3.94-.89-4.51c.74-.43,1.93,1.21,1.93,1.21s-1-3.45-.1-3.83,1.48-.9,3,3c0,0-.56-3.52.35-3.62s2.06,6,2,6.9-2.56,5.28-2.56,5.28-4.75-.19-5.61-1.69a6.5,6.5,0,0,1,1-2.14A2.76,2.76,0,0,1,62.42,72.41Z"/><path class="cls-3" d="M56.23,80.11s2.92,7,6.74,6.19,5.91-9.25,5.91-9.25-6.45-.13-8.66-2.29l-4,5.31"/><path class="cls-3" d="M57.23,78.77l3-4s1.34,1.8,8.63,2.34"/><path class="cls-3" d="M34.12,61.21s3,11.59,9,18.7,8.85,13,20.06,17,17.11,5.3,19.93,12.41c0,0-.47-.81-7.18-.13s-20.47,5.3-29.66-1.08-16-17.85-16-17.85L24.49,69.24s.33-.87,4.23-4.16S34.12,61.21,34.12,61.21Z"/><path class="cls-14" d="M46.69,77.09,46.46,77a53.27,53.27,0,0,0,2.27-20.38l.23,0A53.74,53.74,0,0,1,46.69,77.09Z"/><path class="cls-14" d="M49.25,85.86a1.56,1.56,0,0,1-.57-.13,2.88,2.88,0,0,1-1.15-4.51,3.26,3.26,0,0,1,1.2-.88c-.09-.16-.18-.33-.28-.49a17.77,17.77,0,0,0-4.89-5.36c-.52-.38-1.08-.74-1.62-1.08s-1-.65-1.5-1C36.32,69.5,33.79,65,33.85,60.76c0-.33,0-.67,0-1a7.35,7.35,0,0,0-.24-3l.22-.08a7.46,7.46,0,0,1,.25,3.05c0,.33,0,.67,0,1-.06,4.2,2.43,8.6,6.5,11.47.48.34,1,.67,1.48,1s1.11.71,1.64,1.09a18.1,18.1,0,0,1,4.95,5.43l.3.53A4.21,4.21,0,0,1,50.63,80a12.15,12.15,0,0,1,1.21.17c.32.06.66.12,1,.15a5.74,5.74,0,0,0,6-7.46l.22-.07a6,6,0,0,1-6.23,7.76c-.35,0-.69-.09-1-.15a9.55,9.55,0,0,0-1.18-.16,4.16,4.16,0,0,0-1.56.2,8.88,8.88,0,0,1,1.12,4.07,1.29,1.29,0,0,1-.54,1.24A.86.86,0,0,1,49.25,85.86Zm-.41-5.31a3,3,0,0,0-1.13.82,2.65,2.65,0,0,0,1,4.14.92.92,0,0,0,.77,0c.34-.17.41-.65.41-1A8.66,8.66,0,0,0,48.84,80.55Z"/><path class="cls-13" d="M53,104.06A.07.07,0,0,1,53,104c-.07-2.52-.25-5.06-.51-7.57,0,0,0-.07.06-.08a.07.07,0,0,1,.07.06c.27,2.52.44,5.06.52,7.58a.07.07,0,0,1-.07.07Z"/><path class="cls-22" d="M52.73,68.84H48a1.15,1.15,0,0,1-1.14-1.07l-.7-11.28h8.39l-.7,11.28A1.15,1.15,0,0,1,52.73,68.84Z"/><path class="cls-8" d="M47.17,66.34a4.51,4.51,0,0,1-2.56-1.57,4.56,4.56,0,0,1-1-2.82,2.42,2.42,0,0,1,.73-1.88,1.87,1.87,0,0,1,1.55-.36,2.53,2.53,0,0,1,1.34.83l-.2.17a2.23,2.23,0,0,0-1.2-.74,1.56,1.56,0,0,0-1.32.3A2.13,2.13,0,0,0,43.87,62a4.23,4.23,0,0,0,3.36,4.13Z"/><path class="cls-18" d="M35.63,71.78s2-5,3.82-6.8,4.53-4.17,5.49-3.77,1.56,1,1.16,1.76a5.73,5.73,0,0,1-.81,1.16,4.82,4.82,0,0,1,1.46,3c.35,2.16-1.16,2.92-2.27,4.07s-2.66,2.52-2.66,2.52L35.68,72"/><path class="cls-3" d="M24.49,69.24s-5.64,7.25-3.69,16.17,8.39,13,13.89,9.8,8-21.4,8-21.4L35,71.26Z"/><path class="cls-13" d="M33.82,95.82a.1.1,0,0,1-.07,0s0-.08,0-.09c2.59-1.23,4.49-3.55,5.83-7.1a53.47,53.47,0,0,0,2.52-11.08c.07-.43.13-.85.2-1.28,0-.13,0-.27.07-.4a12,12,0,0,0,.2-2l-8.09-2.59L26.7,85.72a.08.08,0,0,1-.1,0,.06.06,0,0,1,0-.09l7.85-14.49a.07.07,0,0,1,.08,0l8.18,2.62a.06.06,0,0,1,.05.06,10.11,10.11,0,0,1-.2,2l-.06.4c-.07.43-.14.85-.2,1.28a54.57,54.57,0,0,1-2.53,11.11c-1.33,3.53-3.32,6-5.9,7.17Z"/><path class="cls-13" d="M29.61,96.13h0a.07.07,0,0,1,0-.1,7.67,7.67,0,0,1,8-3.81s.07.05.06.08,0,.07-.08.06a7.5,7.5,0,0,0-7.9,3.74A.08.08,0,0,1,29.61,96.13Z"/><path class="cls-13" d="M34.08,71.8h0L30.45,71a.1.1,0,0,1-.05,0,0,0,0,0,1,0,0l3.65-9.61a.07.07,0,0,1,.09,0,.06.06,0,0,1,0,.09l-3.63,9.53,3.55.78a.06.06,0,0,1,0,.08A.09.09,0,0,1,34.08,71.8Z"/><path class="cls-3" d="M34,48.07s.82-6.6,5.89-9.52l2.38,0A18.48,18.48,0,0,0,35,48.41Z"/><path class="cls-21" d="M33.7,48.31A23.09,23.09,0,0,1,34.2,46a.45.45,0,0,1,.54-.29l.82.19a.45.45,0,0,1,.31.63,14.38,14.38,0,0,0-.72,2Z"/><path class="cls-23" d="M33.36,55.69s.06,1.44.56,1.39.29-1.49.29-1.49Z"/><path class="cls-11" d="M33.36,55.69s.06,1.44.56,1.39.29-1.49.29-1.49Z"/><circle class="cls-23" cx="34.02" cy="51.95" r="4.38"/><path class="cls-11" d="M38.39,52A4.37,4.37,0,0,1,34,56.33h-.31a4.38,4.38,0,0,1,0-8.74H34A4.37,4.37,0,0,1,38.39,52Z"/><path class="cls-3" d="M37.79,52a4.39,4.39,0,0,1-4.08,4.37,4.38,4.38,0,0,1,0-8.74A4.39,4.39,0,0,1,37.79,52Z"/><path class="cls-24" d="M33.74,55.7A3.75,3.75,0,1,1,37.49,52,3.75,3.75,0,0,1,33.74,55.7Zm0-7.43A3.68,3.68,0,1,0,37.42,52,3.68,3.68,0,0,0,33.74,48.27Z"/><path class="cls-21" d="M75.37,33.39a9.93,9.93,0,0,0-8.92,14.84l-4.21,7.44,7.22-4.17a9.93,9.93,0,1,0,5.91-18.11Z"/><path class="cls-25" d="M62.09,55.83l4.29-7.6a10,10,0,0,1,8.7-14.9h.29a10,10,0,0,1-.28,20h-.3a9.91,9.91,0,0,1-5.34-1.73Zm13-22.39A9.87,9.87,0,0,0,66.5,48.2v.06l-4.1,7.25,7.06-4.08,0,0A9.88,9.88,0,0,0,82.27,36.54a9.78,9.78,0,0,0-6.9-3.09Z"/><path class="cls-21" d="M55.79,20.54a9.21,9.21,0,0,1,5.1,12,9.07,9.07,0,0,1-3,3.94l2,7.64-5.77-6a9.22,9.22,0,1,1,1.7-17.6Z"/><path class="cls-25" d="M60,44.41l-6-6.18A9.26,9.26,0,1,1,58,36.51Zm-5.91-6.36,0,0,5.54,5.73-1.93-7.37.05,0a9.14,9.14,0,0,0-2.05-15.78,9.13,9.13,0,0,0-6.82,16.94,9,9,0,0,0,5.13.49Z"/><rect class="cls-26" x="73.12" y="36.67" width="4.24" height="7.73" rx="2.12" transform="translate(1.22 -2.19) rotate(1.68)"/><path class="cls-26" d="M75.05,48.92a.14.14,0,0,1-.14-.15l.1-3.45a.15.15,0,1,1,.29,0l-.1,3.45A.15.15,0,0,1,75.05,48.92Z"/><path class="cls-26" d="M75.21,45.31H75.1a3.57,3.57,0,0,1-2.34-.91,2.72,2.72,0,0,1-.94-2.1l.08-2.73a.14.14,0,0,1,.15-.13.13.13,0,0,1,.13.14l-.08,2.73a2.44,2.44,0,0,0,.84,1.88,3.39,3.39,0,0,0,2.17.85,3.31,3.31,0,0,0,2.21-.72,2.45,2.45,0,0,0,1-1.83l.08-2.86a.14.14,0,1,1,.28,0l-.09,2.86a2.71,2.71,0,0,1-1.05,2A3.63,3.63,0,0,1,75.21,45.31Z"/><path class="cls-26" d="M76.74,49.46l-3.57-.11a.36.36,0,0,1-.35-.36h0a.35.35,0,0,1,.37-.34l3.57.1a.35.35,0,0,1,.34.36h0A.36.36,0,0,1,76.74,49.46Z"/><polygon class="cls-26" points="50.5 25.38 50.5 33.14 56.22 28.92 50.5 25.38"/><path class="cls-27" d="M37.11,112.6a8.49,8.49,0,0,1,1.43-3.48,2.82,2.82,0,0,1,1.28-.93,1.64,1.64,0,0,1,1.52.27,1.85,1.85,0,0,1,.55,1.05c.24,1.33-.49,2.7-.28,4a16.25,16.25,0,0,0,1.08,2.69,4.63,4.63,0,0,1-.27,3.7,8.62,8.62,0,0,1-4.11,3.32c-.8.4-1.61.77-2.36,1.24a11.74,11.74,0,0,0-2,1.49c.3-1.23.49-2.33.71-3.21.27-1.13.55-2.26.83-3.39Z"/><path d="M32.23,132.45h0a.07.07,0,0,1,0-.08c1.22-4.63,5.77-21.41,5.81-21.58a.07.07,0,0,1,.13,0c0,.17-4.59,17-5.81,21.58A.08.08,0,0,1,32.23,132.45Z"/><path class="cls-27" d="M24.92,120.08a8.54,8.54,0,0,0-2.25-3,2.7,2.7,0,0,0-1.48-.58,1.63,1.63,0,0,0-1.4.64,1.84,1.84,0,0,0-.27,1.15c.1,1.35,1.15,2.49,1.28,3.84a14.87,14.87,0,0,1-.38,2.87,4.69,4.69,0,0,0,1.2,3.53,8.61,8.61,0,0,0,4.81,2.18c.86.18,1.74.35,2.59.61a10.94,10.94,0,0,1,2.33.94c-.59-1.12-1.05-2.13-1.48-2.93l-1.65-3.08Z"/><path d="M34.59,138.08a.06.06,0,0,1-.06,0c-2.34-4.18-10.94-19.29-11-19.44a.07.07,0,0,1,0-.09.06.06,0,0,1,.09,0c.09.16,8.69,15.27,11,19.44a.07.07,0,0,1,0,.09Z"/><path class="cls-27" d="M30.9,108.3a9.53,9.53,0,0,0-.81-4.07A3,3,0,0,0,28.9,103a1.75,1.75,0,0,0-1.69,0,2,2,0,0,0-.8,1c-.54,1.4,0,3-.53,4.45a17.57,17.57,0,0,1-1.72,2.7,5.22,5.22,0,0,0-.47,4.09c.58,1.89,2.17,3.26,3.73,4.44a29,29,0,0,1,2.28,1.83,12.18,12.18,0,0,1,1.87,2c-.07-1.4-.05-2.63-.1-3.63-.06-1.29-.12-2.57-.19-3.86C31.15,113.45,31,110.88,30.9,108.3Z"/><path d="M32,132.46a.07.07,0,0,1-.07-.07c-.36-5.28-1.71-26-1.73-26.23a.07.07,0,0,1,.07-.07.07.07,0,0,1,.08.07c0,.2,1.37,20.94,1.72,26.22a.08.08,0,0,1-.07.08Z"/><path class="cls-28" d="M21.81,132.42l.62,2.11.05.2.88,3,.12.4,1.59,5.44a2.31,2.31,0,0,0,2.22,1.66h8a2.31,2.31,0,0,0,2.27-1.84l.61-2.92.08-.41,1.11-5.32,0-.18.45-2.13Z"/><polygon class="cls-8" points="22.43 134.53 22.48 134.73 39.39 134.73 39.39 134.53 22.43 134.53"/></svg>