<svg width="17" height="18" viewBox="0 0 17 18" fill="none" xmlns="http://www.w3.org/2000/svg">
<path d="M16.6777 2.48896L13.9566 0.211067C13.5844 -0.0991516 13.026 -0.0548346 12.7069 0.317428C12.3878 0.689691 12.441 1.25695 12.8133 1.56717L15.5343 3.84506C15.9066 4.15528 16.465 4.11096 16.7841 3.7387C17.1032 3.36644 17.0588 2.79918 16.6777 2.48896ZM4.27782 0.317428C3.9676 -0.0548346 3.4092 -0.108015 3.02808 0.202204L0.315876 2.4801C-0.0563865 2.79032 -0.109567 3.35757 0.209515 3.72984C0.519734 4.1021 1.07813 4.14642 1.45039 3.8362L4.16259 1.5583C4.54372 1.24809 4.58803 0.689691 4.27782 0.317428ZM8.93996 5.07707H7.61045V10.3951L11.8206 12.9212L12.4853 11.831L8.93996 9.73036V5.07707ZM8.49679 1.53171C4.09168 1.53171 0.519734 5.10366 0.519734 9.50877C0.519734 13.9139 4.08282 17.4858 8.49679 17.4858C12.9019 17.4858 16.4739 13.9139 16.4739 9.50877C16.4739 5.10366 12.9019 1.53171 8.49679 1.53171ZM8.49679 15.7132C5.06666 15.7132 2.29241 12.9389 2.29241 9.50877C2.29241 6.07864 5.06666 3.30439 8.49679 3.30439C11.9269 3.30439 14.7012 6.07864 14.7012 9.50877C14.7012 12.9389 11.9269 15.7132 8.49679 15.7132Z" fill="#0E0E0E"/>
</svg>
