<svg width="37" height="26" viewBox="0 0 37 26" fill="none" xmlns="http://www.w3.org/2000/svg">
<rect x="3" y="5" width="34" height="14" rx="7" fill="#212121" fill-opacity="0.08"/>
<g filter="url(#filter0_ddd_770_2337)">
<path fill-rule="evenodd" clip-rule="evenodd" d="M13 22C18.5228 22 23 17.5228 23 12C23 6.47715 18.5228 2 13 2C7.47715 2 3 6.47715 3 12C3 17.5228 7.47715 22 13 22Z" fill="#212121" fill-opacity="0.08"/>
</g>
<path fill-rule="evenodd" clip-rule="evenodd" d="M13 22C18.5228 22 23 17.5228 23 12C23 6.47715 18.5228 2 13 2C7.47715 2 3 6.47715 3 12C3 17.5228 7.47715 22 13 22Z" fill="white"/>
<rect x="3" y="5" width="34" height="14" rx="7" fill="#212121" fill-opacity="0.2"/>
<g filter="url(#filter1_ddd_770_2337)">
<path fill-rule="evenodd" clip-rule="evenodd" d="M13 22C18.5228 22 23 17.5228 23 12C23 6.47715 18.5228 2 13 2C7.47715 2 3 6.47715 3 12C3 17.5228 7.47715 22 13 22Z" fill="#212121" fill-opacity="0.08"/>
</g>
<path fill-rule="evenodd" clip-rule="evenodd" d="M13 22C18.5228 22 23 17.5228 23 12C23 6.47715 18.5228 2 13 2C7.47715 2 3 6.47715 3 12C3 17.5228 7.47715 22 13 22Z" fill="white"/>
<defs>
<filter id="filter0_ddd_770_2337" x="0" y="0" width="26" height="26" filterUnits="userSpaceOnUse" color-interpolation-filters="sRGB">
<feFlood flood-opacity="0" result="BackgroundImageFix"/>
<feColorMatrix in="SourceAlpha" type="matrix" values="0 0 0 0 0 0 0 0 0 0 0 0 0 0 0 0 0 0 127 0" result="hardAlpha"/>
<feOffset dy="1"/>
<feGaussianBlur stdDeviation="1.5"/>
<feColorMatrix type="matrix" values="0 0 0 0 0 0 0 0 0 0 0 0 0 0 0 0 0 0 0.2 0"/>
<feBlend mode="normal" in2="BackgroundImageFix" result="effect1_dropShadow_770_2337"/>
<feColorMatrix in="SourceAlpha" type="matrix" values="0 0 0 0 0 0 0 0 0 0 0 0 0 0 0 0 0 0 127 0" result="hardAlpha"/>
<feOffset dy="2"/>
<feGaussianBlur stdDeviation="0.5"/>
<feColorMatrix type="matrix" values="0 0 0 0 0 0 0 0 0 0 0 0 0 0 0 0 0 0 0.12 0"/>
<feBlend mode="normal" in2="effect1_dropShadow_770_2337" result="effect2_dropShadow_770_2337"/>
<feColorMatrix in="SourceAlpha" type="matrix" values="0 0 0 0 0 0 0 0 0 0 0 0 0 0 0 0 0 0 127 0" result="hardAlpha"/>
<feOffset dy="1"/>
<feGaussianBlur stdDeviation="0.5"/>
<feColorMatrix type="matrix" values="0 0 0 0 0 0 0 0 0 0 0 0 0 0 0 0 0 0 0.14 0"/>
<feBlend mode="normal" in2="effect2_dropShadow_770_2337" result="effect3_dropShadow_770_2337"/>
<feBlend mode="normal" in="SourceGraphic" in2="effect3_dropShadow_770_2337" result="shape"/>
</filter>
<filter id="filter1_ddd_770_2337" x="0" y="0" width="26" height="26" filterUnits="userSpaceOnUse" color-interpolation-filters="sRGB">
<feFlood flood-opacity="0" result="BackgroundImageFix"/>
<feColorMatrix in="SourceAlpha" type="matrix" values="0 0 0 0 0 0 0 0 0 0 0 0 0 0 0 0 0 0 127 0" result="hardAlpha"/>
<feOffset dy="1"/>
<feGaussianBlur stdDeviation="1.5"/>
<feColorMatrix type="matrix" values="0 0 0 0 0 0 0 0 0 0 0 0 0 0 0 0 0 0 0.2 0"/>
<feBlend mode="normal" in2="BackgroundImageFix" result="effect1_dropShadow_770_2337"/>
<feColorMatrix in="SourceAlpha" type="matrix" values="0 0 0 0 0 0 0 0 0 0 0 0 0 0 0 0 0 0 127 0" result="hardAlpha"/>
<feOffset dy="2"/>
<feGaussianBlur stdDeviation="0.5"/>
<feColorMatrix type="matrix" values="0 0 0 0 0 0 0 0 0 0 0 0 0 0 0 0 0 0 0.12 0"/>
<feBlend mode="normal" in2="effect1_dropShadow_770_2337" result="effect2_dropShadow_770_2337"/>
<feColorMatrix in="SourceAlpha" type="matrix" values="0 0 0 0 0 0 0 0 0 0 0 0 0 0 0 0 0 0 127 0" result="hardAlpha"/>
<feOffset/>
<feGaussianBlur stdDeviation="0.5"/>
<feColorMatrix type="matrix" values="0 0 0 0 0 0 0 0 0 0 0 0 0 0 0 0 0 0 0.14 0"/>
<feBlend mode="normal" in2="effect2_dropShadow_770_2337" result="effect3_dropShadow_770_2337"/>
<feBlend mode="normal" in="SourceGraphic" in2="effect3_dropShadow_770_2337" result="shape"/>
</filter>
</defs>
</svg>
