<svg width="13" height="17" viewBox="0 0 13 17" fill="none" xmlns="http://www.w3.org/2000/svg">
<path d="M6.5 10.7368C8.04143 10.7368 9.27643 9.53789 9.27643 8.05263L9.28571 2.68421C9.28571 1.19895 8.04143 0 6.5 0C4.95857 0 3.71429 1.19895 3.71429 2.68421V8.05263C3.71429 9.53789 4.95857 10.7368 6.5 10.7368ZM5.38571 2.59474C5.38571 2.00421 5.88714 1.52105 6.5 1.52105C7.11286 1.52105 7.61429 2.00421 7.61429 2.59474L7.605 8.14211C7.605 8.73263 7.11286 9.21579 6.5 9.21579C5.88714 9.21579 5.38571 8.73263 5.38571 8.14211V2.59474ZM11.4214 8.05263C11.4214 10.7368 9.06286 12.6158 6.5 12.6158C3.93714 12.6158 1.57857 10.7368 1.57857 8.05263H0C0 11.1037 2.52571 13.6268 5.57143 14.0653V17H7.42857V14.0653C10.4743 13.6358 13 11.1126 13 8.05263H11.4214Z" fill="#141414"/>
</svg>
