<svg width="15" height="15" viewBox="0 0 15 15" fill="none" xmlns="http://www.w3.org/2000/svg">
<path d="M15 7.51289C14.9981 11.6659 11.6312 15.0033 7.44632 15C3.32328 14.9962 -0.00421513 11.613 4.00785e-06 7.42898C0.00422315 3.31344 3.39454 -0.00608594 7.5879 8.37798e-06C11.6491 0.0056339 15.0019 3.40439 15 7.51289ZM7.48242 13.7464C10.9552 13.7502 13.7507 10.9515 13.7464 7.47445C13.7427 4.04242 10.9431 1.25169 7.50492 1.25169C4.05038 1.25262 1.26434 4.03163 1.25309 7.48852C1.24184 10.9342 4.03725 13.7432 7.48242 13.7464Z" fill="#030303"/>
<path d="M8.12326 8.75215C8.12326 9.54863 8.12842 10.3456 8.11857 11.1416C8.1167 11.2916 8.08294 11.4557 8.0145 11.5869C7.89589 11.8143 7.62774 11.909 7.3685 11.857C7.11863 11.8073 6.92268 11.6024 6.88846 11.3441C6.87533 11.2443 6.87721 11.1416 6.87721 11.0403C6.87674 9.50972 6.87674 7.97911 6.87674 6.4485C6.87674 6.37021 6.87486 6.29192 6.88096 6.21457C6.90815 5.87329 7.16223 5.62952 7.49133 5.6253C7.8312 5.62108 8.10545 5.86766 8.11623 6.2216C8.13076 6.71337 8.12232 7.2056 8.12279 7.69737C8.12373 8.04896 8.12326 8.40056 8.12326 8.75215Z" fill="#030303"/>
<path d="M8.12011 3.75713C8.11636 4.10685 7.83742 4.37641 7.48677 4.36984C7.13751 4.36281 6.8703 4.08154 6.88015 3.73041C6.88952 3.39053 7.16049 3.12895 7.50177 3.12989C7.85242 3.13082 8.12386 3.40554 8.12011 3.75713Z" fill="#030303"/>
</svg>
