<svg width="16" height="26" viewBox="0 0 16 26" fill="none" xmlns="http://www.w3.org/2000/svg">
<path d="M12.6037 0.641357H3.54674C1.67875 0.641357 0.150391 2.17277 0.150391 4.0445V22.1946C0.150391 24.0663 1.67875 25.5977 3.54674 25.5977H12.6037C14.4716 25.5977 16 24.0663 16 22.1946V4.0445C16 2.17277 14.4716 0.641357 12.6037 0.641357ZM9.77337 23.329H6.37702C6.03739 23.329 5.81097 23.1021 5.81097 22.7618C5.81097 22.4215 6.03739 22.1946 6.37702 22.1946H9.77337C10.113 22.1946 10.3394 22.4215 10.3394 22.7618C10.3394 23.1021 10.113 23.329 9.77337 23.329ZM13.7358 19.9258H2.41462V4.0445H13.7358V19.9258Z" fill="#275459"/>
</svg>
