<svg width="12" height="15" viewBox="0 0 12 15" fill="none" xmlns="http://www.w3.org/2000/svg">
<path d="M10.1943 0.978516H4.98198C4.916 0.978516 4.85002 0.978515 4.78404 1.04465L0.759337 5.07906C0.693358 5.1452 0.693359 5.21134 0.693359 5.27748V13.2802C0.693359 14.2061 1.4851 14.9997 2.40881 14.9997H10.1943C11.118 14.9997 11.9097 14.2061 11.9097 13.2802V2.6981C11.9097 1.70603 11.118 0.978516 10.1943 0.978516ZM10.1943 13.6109H2.40881C2.21087 13.6109 2.07891 13.4786 2.07891 13.2802V5.87272C2.07891 5.80658 2.07891 5.74044 2.14489 5.6743L5.37785 2.43355C5.44383 2.36741 5.50981 2.36741 5.57579 2.36741H10.1943C10.3922 2.36741 10.5242 2.49969 10.5242 2.6981V13.2802C10.5242 13.4786 10.3922 13.6109 10.1943 13.6109ZM4.52013 4.48382H5.31187C5.50981 4.48382 5.64176 4.6161 5.64176 4.81451V6.99706C5.64176 7.19548 5.50981 7.32775 5.31187 7.32775H4.52013C4.32219 7.32775 4.19023 7.19548 4.19023 6.99706V4.81451C4.19023 4.6161 4.32219 4.48382 4.52013 4.48382ZM6.63144 4.48382H7.42319C7.62113 4.48382 7.75308 4.6161 7.75308 4.81451V6.99706C7.75308 7.19548 7.62113 7.32775 7.42319 7.32775H6.63144C6.43351 7.32775 6.30155 7.19548 6.30155 6.99706V4.81451C6.30155 4.6161 6.43351 4.48382 6.63144 4.48382ZM8.67678 4.48382H9.46853C9.66647 4.48382 9.79842 4.6161 9.79842 4.81451V6.99706C9.79842 7.19548 9.66647 7.32775 9.46853 7.32775H8.67678C8.47885 7.32775 8.34689 7.19548 8.34689 6.99706V4.81451C8.41287 4.6161 8.54483 4.48382 8.67678 4.48382Z" fill="#150035"/>
</svg>
