<svg width="17" height="17" viewBox="0 0 17 17" fill="none" xmlns="http://www.w3.org/2000/svg">
<path d="M0 15.1101H1.8899V17C0.849087 17 0 16.1509 0 15.1101ZM0 7.55048H1.8899V9.44039H0V7.55048ZM3.77981 0H5.66971V1.8899H3.77981V0ZM0 11.3303H1.8899V13.2202H0V11.3303ZM9.44952 17H7.55961V15.1101H9.44952V17ZM15.1101 17V15.1101H17C17 16.1509 16.1509 17 15.1101 17ZM1.8899 0V1.8899H0C0 0.849086 0.849087 0 1.8899 0ZM0 3.77981H1.8899V5.66971H0V3.77981ZM5.66971 17H3.77981V15.1101H5.66971V17ZM7.55961 0H9.44952V1.8899H7.55961V0ZM15.1101 7.55048H17V9.44039H15.1101V7.55048ZM15.1101 0C16.1509 0 17 0.849086 17 1.8899H15.1101V0ZM15.1101 11.3303H17V13.2202H15.1101V11.3303ZM15.1101 3.77981H17V5.66971H15.1101V3.77981ZM11.3394 0H13.2293V1.8899H11.3394V0ZM11.3394 15.1101H13.2293V17H11.3394V15.1101ZM3.77981 3.77981H13.2293V13.2202H3.77981V3.77981ZM5.66971 11.3303H11.3394V5.66058H5.66971V11.3303Z" fill="#1E1E1E"/>
</svg>
