<svg width="15" height="17" viewBox="0 0 15 17" fill="none" xmlns="http://www.w3.org/2000/svg">
<path fill-rule="evenodd" clip-rule="evenodd" d="M10.5 1.3125V2.25H14.4375C14.5867 2.25 14.7298 2.30926 14.8352 2.41475C14.9407 2.52024 15 2.66332 15 2.8125C15 2.96168 14.9407 3.10476 14.8352 3.21025C14.7298 3.31574 14.5867 3.375 14.4375 3.375H0.5625C0.413316 3.375 0.270242 3.31574 0.164752 3.21025C0.0592632 3.10476 0 2.96168 0 2.8125C0 2.66332 0.0592632 2.52024 0.164752 2.41475C0.270242 2.30926 0.413316 2.25 0.5625 2.25H4.5V1.3125C4.5 0.588 5.088 0 5.8125 0H9.1875C9.912 0 10.5 0.588 10.5 1.3125ZM5.625 1.3125C5.625 1.26277 5.64475 1.21508 5.67992 1.17992C5.71508 1.14475 5.76277 1.125 5.8125 1.125H9.1875C9.23723 1.125 9.28492 1.14475 9.32008 1.17992C9.35525 1.21508 9.375 1.26277 9.375 1.3125V2.25H5.625V1.3125Z" fill="black"/>
<path d="M2.2479 4.63409C2.24149 4.56004 2.22046 4.48799 2.18604 4.42211C2.15161 4.35623 2.10447 4.29783 2.04734 4.25027C1.99021 4.20272 1.92422 4.16697 1.85319 4.14507C1.78215 4.12318 1.70749 4.11558 1.6335 4.12272C1.55951 4.12985 1.48767 4.15158 1.42213 4.18665C1.35659 4.22172 1.29865 4.26942 1.25166 4.32702C1.20467 4.38461 1.16956 4.45095 1.14836 4.52219C1.12716 4.59344 1.12029 4.66818 1.12815 4.74209L2.18715 15.6906C2.21883 16.0151 2.37016 16.3162 2.61167 16.5353C2.85319 16.7543 3.16759 16.8756 3.49365 16.8756H11.5067C11.8328 16.8756 12.1473 16.7542 12.3889 16.535C12.6304 16.3158 12.7817 16.0145 12.8132 15.6898L13.8729 4.74209C13.8872 4.5935 13.8419 4.44531 13.747 4.33012C13.6521 4.21492 13.5152 4.14216 13.3667 4.12784C13.2181 4.11352 13.0699 4.15881 12.9547 4.25375C12.8395 4.34869 12.7667 4.4855 12.7524 4.63409L11.6934 15.5811C11.6889 15.6275 11.6673 15.6706 11.6328 15.7019C11.5983 15.7333 11.5533 15.7506 11.5067 15.7506H3.49365C3.44702 15.7506 3.40205 15.7333 3.36752 15.7019C3.33299 15.6706 3.31138 15.6275 3.3069 15.5811L2.2479 4.63409Z" fill="black"/>
<path d="M5.4045 5.62634C5.47828 5.62198 5.55219 5.6322 5.62202 5.65642C5.69184 5.68063 5.75621 5.71837 5.81145 5.76747C5.86668 5.81658 5.9117 5.87609 5.94392 5.9426C5.97615 6.00911 5.99495 6.08131 5.99925 6.15509L6.37425 12.5301C6.38301 12.6792 6.33218 12.8256 6.23295 12.9372C6.13372 13.0488 5.99421 13.1165 5.84513 13.1252C5.69604 13.134 5.54959 13.0831 5.43798 12.9839C5.32637 12.8847 5.25876 12.7452 5.25 12.5961L4.875 6.22109C4.87064 6.14732 4.88086 6.0734 4.90508 6.00358C4.92929 5.93375 4.96703 5.86938 5.01614 5.81415C5.06524 5.75892 5.12475 5.7139 5.19126 5.68168C5.25777 5.64945 5.32997 5.63065 5.40375 5.62634H5.4045ZM10.1243 6.22109C10.133 6.07201 10.0822 5.92555 9.98295 5.81395C9.88372 5.70234 9.74421 5.63472 9.59513 5.62597C9.44604 5.61722 9.29959 5.66805 9.18798 5.76728C9.07637 5.86651 9.00876 6.00601 9 6.15509L8.625 12.5301C8.61625 12.6791 8.66704 12.8254 8.7662 12.937C8.86536 13.0485 9.00477 13.1161 9.15375 13.1248C9.30274 13.1336 9.4491 13.0828 9.56064 12.9836C9.67217 12.8845 9.73975 12.7451 9.7485 12.5961L10.1235 6.22109H10.1243Z" fill="black"/>
</svg>
