<svg width="15" height="16" viewBox="0 0 15 16" fill="none" xmlns="http://www.w3.org/2000/svg">
<path fill-rule="evenodd" clip-rule="evenodd" d="M13.4998 2.99396C13.4998 3.39178 13.3417 3.77332 13.0604 4.05462C12.7791 4.33592 12.3976 4.49396 11.9998 4.49396C11.6019 4.49396 11.2204 4.33592 10.9391 4.05462C10.6578 3.77332 10.4998 3.39178 10.4998 2.99396C10.4998 2.59613 10.6578 2.2146 10.9391 1.9333C11.2204 1.65199 11.6019 1.49396 11.9998 1.49396C12.3976 1.49396 12.7791 1.65199 13.0604 1.9333C13.3417 2.2146 13.4998 2.59613 13.4998 2.99396V2.99396ZM14.9998 2.99396C14.9997 3.59383 14.8198 4.17992 14.4833 4.67653C14.1468 5.17314 13.6692 5.55747 13.1121 5.77988C12.555 6.0023 11.944 6.05259 11.358 5.92426C10.772 5.79593 10.2379 5.49487 9.82476 5.05996L5.90476 7.23896C6.03328 7.73409 6.03328 8.25383 5.90476 8.74896L9.82476 10.928C10.3283 10.3992 11.0075 10.0723 11.7349 10.0084C12.4623 9.94458 13.188 10.1482 13.776 10.5812C14.364 11.0142 14.7739 11.6467 14.9288 12.3603C15.0838 13.0738 14.9732 13.8194 14.6177 14.4573C14.2623 15.0951 13.6864 15.5814 12.9981 15.825C12.3097 16.0687 11.5561 16.0529 10.8786 15.7806C10.2011 15.5083 9.64608 14.9983 9.31768 14.3461C8.98929 13.694 8.91003 12.9444 9.09476 12.238L5.17476 10.06C4.76155 10.4948 4.22747 10.7958 3.64148 10.9241C3.05548 11.0523 2.4445 11.002 1.88741 10.7795C1.33032 10.5571 0.852718 10.1727 0.516275 9.67605C0.179832 9.17942 0 8.59333 0 7.99346C0 7.39359 0.179832 6.8075 0.516275 6.31087C0.852718 5.81423 1.33032 5.42987 1.88741 5.2074C2.4445 4.98493 3.05548 4.93458 3.64148 5.06284C4.22747 5.19111 4.76155 5.4921 5.17476 5.92696L9.09476 3.74896C8.98851 3.33685 8.97116 2.90686 9.04386 2.48753C9.11656 2.0682 9.27765 1.66914 9.51642 1.31685C9.75519 0.964562 10.0662 0.667106 10.4288 0.44424C10.7913 0.221374 11.1971 0.0781997 11.6193 0.024225C12.0414 -0.0297496 12.4702 0.00671119 12.8772 0.131186C13.2842 0.255661 13.66 0.4653 13.9797 0.746181C14.2995 1.02706 14.5558 1.37276 14.7316 1.7603C14.9075 2.14785 14.9989 2.56838 14.9998 2.99396V2.99396ZM13.4998 12.994C13.4998 13.3918 13.3417 13.7733 13.0604 14.0546C12.7791 14.3359 12.3976 14.494 11.9998 14.494C11.6019 14.494 11.2204 14.3359 10.9391 14.0546C10.6578 13.7733 10.4998 13.3918 10.4998 12.994C10.4998 12.5961 10.6578 12.2146 10.9391 11.9333C11.2204 11.652 11.6019 11.494 11.9998 11.494C12.3976 11.494 12.7791 11.652 13.0604 11.9333C13.3417 12.2146 13.4998 12.5961 13.4998 12.994ZM4.49976 7.99396C4.49976 8.39178 4.34172 8.77332 4.06042 9.05462C3.77911 9.33592 3.39758 9.49396 2.99976 9.49396C2.60193 9.49396 2.2204 9.33592 1.9391 9.05462C1.65779 8.77332 1.49976 8.39178 1.49976 7.99396C1.49976 7.59613 1.65779 7.2146 1.9391 6.9333C2.2204 6.65199 2.60193 6.49396 2.99976 6.49396C3.39758 6.49396 3.77911 6.65199 4.06042 6.9333C4.34172 7.2146 4.49976 7.59613 4.49976 7.99396V7.99396Z" fill="#0F0F0F"/>
</svg>
