<svg width="17" height="17" viewBox="0 0 17 17" fill="none" xmlns="http://www.w3.org/2000/svg">
<path d="M8.49107 4.24983C9.58315 4.24983 10.6752 4.24983 11.7673 4.24983C12.468 4.24983 12.7502 4.54105 12.7502 5.2509C12.7502 7.41686 12.7502 9.58281 12.7502 11.7488C12.7502 12.4586 12.4589 12.7498 11.7673 12.7498C9.58315 12.7498 7.399 12.7498 5.22394 12.7498C4.5596 12.7498 4.25928 12.4495 4.25928 11.7761C4.25928 9.59191 4.25928 7.40776 4.25928 5.2327C4.25928 4.55926 4.5505 4.25893 5.22394 4.25893C6.30692 4.24073 7.399 4.24983 8.49107 4.24983Z" fill="#0E0E0E"/>
<path d="M3.43115 0.00927734C3.97719 0.00927734 4.50503 0.00927734 5.06927 0.00927734C5.06927 0.546215 5.06927 1.06495 5.06927 1.62009C4.54143 1.62009 4.00449 1.62009 3.43115 1.62009C3.43115 1.09225 3.43115 0.564416 3.43115 0.00927734Z" fill="#0E0E0E"/>
<path d="M7.68115 0.00927734C8.24539 0.00927734 8.78233 0.00927734 9.33746 0.00927734C9.33746 0.555316 9.33746 1.07405 9.33746 1.62919C8.78233 1.62919 8.24539 1.62919 7.68115 1.62919C7.68115 1.09225 7.68115 0.573517 7.68115 0.00927734Z" fill="#0E0E0E"/>
<path d="M11.9312 1.61978C11.9312 1.07374 11.9312 0.564105 11.9312 0.0180664C12.4772 0.0180664 13.0232 0.0180664 13.5966 0.0180664C13.5966 0.545904 13.5966 1.06464 13.5966 1.61978C13.0414 1.61978 12.5045 1.61978 11.9312 1.61978Z" fill="#0E0E0E"/>
<path d="M1.63829 3.4126C1.63829 3.95864 1.63829 4.48647 1.63829 5.05071C1.11045 5.05071 0.573517 5.05071 0.00927734 5.05071C0.00927734 4.51377 0.00927734 3.98594 0.00927734 3.4126C0.555316 3.4126 1.08315 3.4126 1.63829 3.4126Z" fill="#0E0E0E"/>
<path d="M17.0001 3.43994C17.0001 3.96778 17.0001 4.49561 17.0001 5.05075C16.4723 5.05075 15.9353 5.05075 15.3711 5.05075C15.3711 4.53202 15.3711 4.01328 15.3711 3.43994C15.8898 3.43994 16.4177 3.43994 17.0001 3.43994Z" fill="#0E0E0E"/>
<path d="M0.0180664 7.67188C0.573205 7.67188 1.09194 7.67188 1.63798 7.67188C1.63798 8.23611 1.63798 8.76395 1.63798 9.32819C1.09194 9.32819 0.573205 9.32819 0.0180664 9.32819C0.0180664 8.78215 0.0180664 8.24522 0.0180664 7.67188Z" fill="#0E0E0E"/>
<path d="M16.9998 7.67188C16.9998 8.22701 16.9998 8.76395 16.9998 9.32819C16.4538 9.32819 15.935 9.32819 15.3799 9.32819C15.3799 8.77305 15.3799 8.24522 15.3799 7.67188C15.9077 7.67188 16.4265 7.67188 16.9998 7.67188Z" fill="#0E0E0E"/>
<path d="M0 13.5872C0 13.0229 0 12.4951 0 11.9399C0.546039 11.9399 1.08298 11.9399 1.63812 11.9399C1.63812 12.486 1.63812 13.0229 1.63812 13.5872C1.09208 13.5872 0.573341 13.5872 0 13.5872Z" fill="#0E0E0E"/>
<path d="M15.3892 11.9312C15.9261 11.9312 16.4448 11.9312 17 11.9312C17 12.4772 17 13.0141 17 13.5784C16.4721 13.5784 15.9534 13.5784 15.3892 13.5784C15.3892 13.0505 15.3892 12.5136 15.3892 11.9312Z" fill="#0E0E0E"/>
<path d="M5.05981 16.991C4.50467 16.991 3.96774 16.991 3.4126 16.991C3.4126 16.445 3.4126 15.9262 3.4126 15.3711C3.96774 15.3711 4.49557 15.3711 5.05981 15.3711C5.05981 15.8989 5.05981 16.4177 5.05981 16.991Z" fill="#0E0E0E"/>
<path d="M9.32837 16.9907C8.78233 16.9907 8.24539 16.9907 7.68115 16.9907C7.68115 16.4538 7.68115 15.935 7.68115 15.3799C8.22719 15.3799 8.76413 15.3799 9.32837 15.3799C9.32837 15.9077 9.32837 16.4356 9.32837 16.9907Z" fill="#0E0E0E"/>
<path d="M11.9399 15.3618C12.4951 15.3618 13.0229 15.3618 13.5781 15.3618C13.5781 15.9079 13.5781 16.4357 13.5781 16.9908C13.032 16.9908 12.4951 16.9908 11.9399 16.9908C11.9399 16.4539 11.9399 15.9352 11.9399 15.3618Z" fill="#0E0E0E"/>
<path d="M0.0273438 0C0.53698 0 1.02841 0 1.41974 0C0.973811 0.445932 0.473275 0.946467 0.0273438 1.4015C0.0273438 1.04657 0.0273438 0.546039 0.0273438 0Z" fill="#0E0E0E"/>
<path d="M15.5073 0.00927734C15.9624 0.00927734 16.472 0.00927734 16.9998 0.00927734C16.9998 0.528014 16.9998 1.02855 16.9998 1.51999C16.4902 1.01035 15.9988 0.500712 15.5073 0.00927734Z" fill="#0E0E0E"/>
<path d="M1.46507 17C1.02824 17 0.536803 17 0.0180664 17C0.0180664 16.4813 0.0180664 15.9807 0.0180664 15.5166C0.4913 16.008 0.991835 16.5086 1.46507 17Z" fill="#0E0E0E"/>
<path d="M15.4438 16.9816C15.9717 16.472 16.4722 15.9805 16.9819 15.48C16.9819 15.9532 16.9819 16.4446 16.9819 16.9816C16.4904 16.9816 15.9899 16.9816 15.4438 16.9816Z" fill="#0E0E0E"/>
</svg>
