<svg id="Layer_1" data-name="Layer 1" xmlns="http://www.w3.org/2000/svg" viewBox="0 0 167 130"><defs><style>.cls-1{fill:#f4f9f8;}.cls-2{fill:#ffbf9d;}.cls-3{fill:#006b73;}.cls-4{fill:#1a2e35;}.cls-5{opacity:0.1;}.cls-6{fill:#0f1d21;}.cls-7{fill:#efac8f;}.cls-8{fill:#ff97ba;}.cls-9{fill:#ffc800;}.cls-10{opacity:0.3;}.cls-11{fill:#fff;}.cls-12{fill:#ececec;}.cls-13{fill:#375a64;}</style></defs><title>Artboard 1no_item</title><path class="cls-1" d="M154.05,37.49h-38.5s3.82-10.43,9.69-10.43,7.72,7.2,7.72,7.2,4-3.91,7.21-3.91,6.09,5.16,6.09,5.16A5.69,5.69,0,0,1,154.05,37.49Z"/><path class="cls-1" d="M132.5,16.87h-18s4-5.83,7.19-5.83,4.1,3.89,4.1,3.89,2.23-1.82,4.3-1.49S132.5,16.87,132.5,16.87Z"/><path class="cls-1" d="M48.85,34.38h-35S18.61,23.67,23.74,23s7.59,8,7.59,8,3.31-3.05,5.91-3.05,4.62,4,4.62,4S47.06,29.17,48.85,34.38Z"/><path class="cls-1" d="M82.16,7.88H58.48S62.55.11,67,0s6.73,5.88,6.73,5.88S80.55.37,82.16,7.88Z"/><path class="cls-2" d="M81.31,59.94c6,6.29,24.23,34.3,25.64,35.13,0,0,0,18.32-10.12,14.66s-19.4-36.52-21.38-47C74.4,57.22,76.37,54.8,81.31,59.94Z"/><path class="cls-3" d="M79.77,81.59l18.55-2.11S86.82,64.22,80.87,58.77c-6.2-5.68-9.24-4.88-6.37,5.87S79.77,81.59,79.77,81.59Z"/><path class="cls-4" d="M80.66,78.25c.44-.1.89-.14,1.33-.2l1.36-.19c.92-.13,1.85-.24,2.77-.35,1.85-.21,3.69-.43,5.54-.62l1.52-.14c.54,0,1.08,0,1.61-.08,0,0,0,0,0,0-.45.07-.9.18-1.36.24s-.93.14-1.4.2c-.92.12-1.84.23-2.77.33-1.82.2-3.63.4-5.46.56l-1.52.13a14.53,14.53,0,0,1-1.61.12A0,0,0,0,1,80.66,78.25Z"/><path class="cls-5" d="M88.77,80.57l-9,1s-2.37-6.13-5.27-17c-1.22-4.56-1.37-7.33-.67-8.58Z"/><path class="cls-4" d="M84.92,119.74H56.7c-.23-.91-.45-1.8-.68-2.68s-.51-2-.75-3c-.06-.22-.12-.43-.17-.64-.18-.74-.37-1.46-.55-2.16-.1-.42-.21-.84-.31-1.25s-.22-.84-.32-1.24c0-.11-.06-.22-.08-.32l-.09-.35c0-.14-.07-.28-.11-.42h0c0-.15-.07-.29-.11-.43s-.14-.54-.2-.8-.2-.77-.29-1.14l-.12-.48c-.07-.25-.14-.5-.2-.75s-.08-.33-.12-.48c-.17-.65-.32-1.26-.46-1.83l-.12-.44-.18-.71c0-.14-.07-.28-.1-.42-.13-.48-.24-.93-.34-1.32,0-.1,0-.2-.08-.3l-.17-.69-.06-.23c0-.08,0-.16-.06-.22s0-.11,0-.15,0-.13-.05-.19a.29.29,0,0,0,0-.09l-.06-.25H78.32l2.35,8.14c.3,1,.61,2.13,1,3.3C82.59,111.59,83.71,115.51,84.92,119.74Z"/><path class="cls-4" d="M61.32,119.74h-.7q-1.57-6.48-3-13c-.23-1-.47-2.11-.7-3.17l-.06-.29c0-.06.07-.08.08,0l0,.1c.32,1.13.63,2.27,1,3.41Q59.67,113.24,61.32,119.74Z"/><path class="cls-4" d="M77.43,96.8l-1.21,6.07-1,5-1.69,8.48-.17.87-.29,1.45-.22,1.1H56.7L56,117.06c-.26-1-.51-2-.75-3-.06-.22-.12-.43-.17-.64-.18-.74-.37-1.46-.55-2.16-.1-.42-.21-.84-.31-1.25s-.22-.84-.32-1.24c0-.11-.06-.22-.08-.32l-.09-.35c0-.14-.07-.28-.11-.42h0c0-.15-.07-.29-.11-.43s-.14-.54-.2-.8-.2-.77-.29-1.14l-.12-.48c-.07-.25-.14-.5-.2-.75s-.08-.33-.12-.48c-.17-.65-.32-1.26-.46-1.83l-.12-.44-.18-.71c0-.14-.07-.28-.1-.42-.13-.48-.24-.93-.34-1.32,0-.1,0-.2-.08-.3l-.17-.69-.06-.23c0-.08,0-.16-.06-.22s0-.11,0-.15,0-.13-.05-.19a.29.29,0,0,0,0-.09l-.06-.25Z"/><path class="cls-6" d="M77.43,96.79h0c0,.15-.11,1.79-.38,4.29-.07.73-.16,1.53-.26,2.38-.16,1.36-.36,2.85-.61,4.43-.42,2.76-1,5.77-1.69,8.71-.25,1.06-.53,2.1-.83,3.13H38.21c.42-5.4.8-10.29,1.11-14.14.42-5.42.69-8.81.69-8.81H77.43Z"/><path class="cls-4" d="M77.36,100.05c0,1.27-.09,2.53-.18,3.79s-.21,2.74-.39,4.1c0,0,0,.1,0,.15-.17,1.28-.36,2.56-.58,3.83a13.24,13.24,0,0,1-.88,3.57,3.63,3.63,0,0,1-.83,1.12,2.4,2.4,0,0,1-1.13.58l-.21,0h-.06a.08.08,0,0,1,0,.08c0,.42,0,.86-.05,1.28v0c0,.37-.11.73-.18,1.1h-.61v0c.11-.4.19-.81.29-1.21s.25-.82.34-1.23l0,0a1.89,1.89,0,0,1-1.83-1.15,3.37,3.37,0,0,1,0-1.67l.33-2.17c.21-1.34.48-2.66.71-4,0-.2.08-.41.11-.61.48-2.7,1-5.4,1.57-8.07,0-.11,0-.22.07-.33s.14-.06.13,0,0,.36-.06.54c-.1,1-.22,2-.36,3.07-.18,1.2-.29,2.4-.46,3.6L73,107.7c-.27,2-.56,3.94-.89,5.91-.16.91-.73,2.54.58,2.83a1.33,1.33,0,0,0,.89-.12,2.72,2.72,0,0,0,1.22-1.54,20.14,20.14,0,0,0,.7-3.28c.21-1.2.4-2.4.57-3.61h0c.22-1.5.44-3,.67-4.51l.36-2.29.18-1.07C77.24,100,77.36,100,77.36,100.05Z"/><path class="cls-4" d="M46,109.47a18,18,0,0,0,4.37-.59c.66-.17,1.31-.38,2-.59a4.88,4.88,0,0,0,1.76-.89A7.67,7.67,0,0,0,56,104a33,33,0,0,0,1.15-4.14c0-.07.11,0,.11,0a15.92,15.92,0,0,1-.59,4.7,7.36,7.36,0,0,1-1.88,3.65,7.42,7.42,0,0,1-4,1.46,18.58,18.58,0,0,1-4.77-.06A.08.08,0,0,1,46,109.47Z"/><path class="cls-4" d="M43.53,99.9q-.12,3-.25,6-.3,6.94-.67,13.88H42q.45-7,1-13.9l.45-5.94A.09.09,0,0,1,43.53,99.9Z"/><path class="cls-3" d="M83.54,111.47l-48.1-3.64s9.68-38.35,28.78-52.45a9.42,9.42,0,0,1,12.64,1.4C83,63.62,83.68,111.32,83.54,111.47Z"/><path class="cls-7" d="M74.13,64.79c-2.77-.4-5.59-6-6.06-9.83,0-.26,4.28-8.51,5-10.23.13-.35,9.78,6.93,9.78,6.93a29.68,29.68,0,0,0-3.68,6.2C79.05,58.11,76.82,65.19,74.13,64.79Z"/><path class="cls-4" d="M82.82,51.65a29.58,29.58,0,0,0-3.68,6.21c0,.06-.16.5-.4,1.13A15.42,15.42,0,0,1,71,49.07c.94-1.87,1.81-3.64,2.08-4.34C73.18,44.38,82.82,51.65,82.82,51.65Z"/><path class="cls-2" d="M75.25,31.34c-2.82,3.26-5.64,15-4,18.65,2.34,5.24,8.57,8.4,13.63,5s8.31-18.66,6.29-22.19C88.15,27.64,79.41,26.52,75.25,31.34Z"/><path class="cls-4" d="M82.79,40.9a9.71,9.71,0,0,1-1.08,0,1.73,1.73,0,0,1-1.1-.21.56.56,0,0,1-.14-.67,1.39,1.39,0,0,1,1.27-.58,2,2,0,0,1,1.39.44A.6.6,0,0,1,82.79,40.9Z"/><path class="cls-4" d="M82.47,42.63s-.07,0-.08.06c-.13.8-.42,1.7-1.2,1.83,0,0,0,0,0,0C82.1,44.61,82.47,43.41,82.47,42.63Z"/><path class="cls-4" d="M81.92,41.65c-1.27-.35-1.88,2.21-.71,2.54S83,42,81.92,41.65Z"/><path class="cls-4" d="M87.09,43.62s0,.05,0,.08c-.22.79-.33,1.73.33,2.17,0,0,0,.05,0,0C86.59,45.58,86.76,44.33,87.09,43.62Z"/><path class="cls-4" d="M88,43c1.3.21.79,2.79-.41,2.6S86.9,42.78,88,43Z"/><path class="cls-4" d="M89.31,41.69c-.34-.15-.63-.34-1-.51a1.74,1.74,0,0,1-.87-.71.55.55,0,0,1,.19-.65,1.36,1.36,0,0,1,1.4.07,2,2,0,0,1,1,1A.6.6,0,0,1,89.31,41.69Z"/><path class="cls-4" d="M79.81,49.51c.15.23.27.53.56.63a2.1,2.1,0,0,0,.9,0s0,0,0,0a1.12,1.12,0,0,1-1.11.19.86.86,0,0,1-.45-.85C79.72,49.48,79.79,49.48,79.81,49.51Z"/><path class="cls-4" d="M81.21,47.33A2.81,2.81,0,0,0,82.73,49a3.2,3.2,0,0,0,1,.27.69.69,0,0,0,.2,0h.18a.2.2,0,0,0,.2-.14h0a.28.28,0,0,0,0-.09h0l0-.07c.16-.61.32-1.55.32-1.55.2.16,1.22,1,1.28.62a42.41,42.41,0,0,0,.91-8.43c0-.09-.14-.11-.15,0-.56,2.56-.67,5.2-1.19,7.78a5,5,0,0,0-1.18-.69c-.09,0-.29,1.83-.38,2.1v0a3.86,3.86,0,0,1-2.59-1.54C81.26,47.22,81.18,47.26,81.21,47.33Z"/><path class="cls-4" d="M83.41,48.85a3.35,3.35,0,0,1-1.53.69,1.49,1.49,0,0,1-.89-.16c-.59-.32-.47-.9-.23-1.37a3.41,3.41,0,0,1,.47-.7A4.23,4.23,0,0,0,83.41,48.85Z"/><path class="cls-8" d="M81.88,49.54a1.49,1.49,0,0,1-.89-.16c-.59-.32-.47-.9-.23-1.37A1.52,1.52,0,0,1,81.88,49.54Z"/><path class="cls-4" d="M92.21,37.43c-5,2.09-10.07-3.71-10.07-3.71a4.86,4.86,0,0,1-5.46,2S74.27,43,72.31,42.56c-3-.64-1.79-11-.43-12.75a5.41,5.41,0,0,1,4-1.78,5,5,0,0,1,2.64-2.53c2.36-1.13,9,2.43,9,2.43a6.65,6.65,0,0,1,2.3-2.06,1.89,1.89,0,0,1,2.61.8,4.47,4.47,0,0,0-1.1,1.68c-.81,2.1,1,2.47,1.37.49a3.16,3.16,0,0,0-.27-2.17c1.14-1.11,2.66-1.23,3.38-.36C97.08,27.89,96.38,35.69,92.21,37.43Z"/><path class="cls-9" d="M79.94,46.61a3.45,3.45,0,1,1,4.5-3.07h0a3.46,3.46,0,0,1-3.66,3.23A3.79,3.79,0,0,1,79.94,46.61Zm2-6.14a2.86,2.86,0,0,0-.73-.13,3,3,0,1,0,.73.13Z"/><path class="cls-9" d="M87.55,48.05c-1.23-.46-1.88-2.15-1.44-3.9A4.18,4.18,0,0,1,87.4,42a2.15,2.15,0,0,1,3.57.89,4.13,4.13,0,0,1,.13,2.52c-.46,1.85-1.95,3.07-3.33,2.73Zm1.94-6.13-.17-.05a1.84,1.84,0,0,0-1.63.47,3.64,3.64,0,0,0-1.13,1.92c-.4,1.6.19,3.13,1.32,3.41s2.37-.79,2.77-2.39a3.65,3.65,0,0,0-.11-2.23A1.87,1.87,0,0,0,89.49,41.92Z"/><path class="cls-9" d="M84.25,43.91,84,43.5a1.89,1.89,0,0,1,2.55.37l-.39.25C85.6,43.18,84.3,43.88,84.25,43.91Z"/><path class="cls-9" d="M69,41.8l-.36-.29c.13-.17,1.34-1.64,2.38-1.61s6.93,1.81,7.18,1.88l-.13.44c-1.7-.51-6.31-1.83-7.07-1.86S69.31,41.39,69,41.8Z"/><path class="cls-2" d="M73.59,41.87s-1-4.6-3-4.41-2.32,6.13-.73,7.64a2.09,2.09,0,0,0,3,.07Z"/><path class="cls-4" d="M70.59,39.17a0,0,0,1,0,0,0,5.32,5.32,0,0,1,1.21,4.11,1.16,1.16,0,0,0-1.47-1s0,.08,0,.09a1.27,1.27,0,0,1,1.12,1,5.74,5.74,0,0,1,.17,1.31c0,.15.26.18.27,0v0C72.63,43,72.33,40.11,70.59,39.17Z"/><polygon class="cls-3" points="167.12 119.41 146.17 119.95 125.22 120.15 83.33 120.52 41.44 120.15 20.49 119.95 -0.46 119.41 20.49 118.86 41.44 118.67 83.33 118.29 125.22 118.67 146.17 118.87 167.12 119.41"/><path class="cls-2" d="M98.1,74.2c.91-2.38,21.88,1.92,21,5.58-3.06,13.37-11.62,25.32-13.79,28.05-2.84,3.58-8.49,2.78-10.55.61C91.82,105.3,97.21,76.55,98.1,74.2Z"/><path class="cls-4" d="M96.63,80.76a26.79,26.79,0,0,0-1.11,3.94c-.3,1.32-.57,2.65-.78,4A60.32,60.32,0,0,0,94,96.86c0,1.53,0,3.06,0,4.59,0,0,0,0,0,0,0-1.35.09-2.72.2-4.07s.25-2.73.42-4.08c.34-2.67.73-5.32,1.2-8,.13-.74.27-1.48.42-2.21s.32-1.53.42-2.31C96.74,80.74,96.65,80.69,96.63,80.76Z"/><path class="cls-2" d="M93,36.51a37.4,37.4,0,0,1-.81,5.41c-.07.3-.14.61-.22.92-.3,1.22-.66,2.45-1.06,3.63l-.3.85c-1.27,3.43-3,6.38-4.84,7.63a8.82,8.82,0,0,1-1.54.82,18.52,18.52,0,0,1-9.15-15.39l-.57-.16.27-.43.3-.52A18.46,18.46,0,0,1,80.33,27c4.49-1.21,9.88.52,12.14,4.46A10,10,0,0,1,93,36.51Z"/><path class="cls-4" d="M83.62,40a10.84,10.84,0,0,1-1.14,0,1.78,1.78,0,0,1-1.16-.22.61.61,0,0,1-.15-.71,1.48,1.48,0,0,1,1.34-.62,2.15,2.15,0,0,1,1.47.47A.63.63,0,0,1,83.62,40Z"/><path class="cls-4" d="M83.29,41.81s-.08,0-.08.06c-.14.86-.45,1.81-1.27,1.94,0,0,0,0,0,0C82.9,43.91,83.29,42.64,83.29,41.81Z"/><path class="cls-4" d="M82.71,40.78c-1.35-.38-2,2.34-.75,2.68S83.83,41.09,82.71,40.78Z"/><path class="cls-4" d="M88.18,42.86s0,.06,0,.09c-.22.84-.34,1.83.35,2.29,0,0,0,.06,0,0C87.65,44.93,87.83,43.62,88.18,42.86Z"/><path class="cls-4" d="M89.14,42.16c1.38.22.83,3-.44,2.76S88,42,89.14,42.16Z"/><path class="cls-4" d="M90.53,40.81c-.36-.15-.67-.35-1-.53a2,2,0,0,1-.93-.75.58.58,0,0,1,.21-.69,1.44,1.44,0,0,1,1.48.07A2.11,2.11,0,0,1,91.36,40,.63.63,0,0,1,90.53,40.81Z"/><path class="cls-4" d="M80.47,49.1c.16.25.29.57.59.66a2.22,2.22,0,0,0,1,0s0,0,0,0a1.16,1.16,0,0,1-1.17.2.92.92,0,0,1-.49-.9S80.45,49.07,80.47,49.1Z"/><path class="cls-4" d="M82,46.79a3,3,0,0,0,1.61,1.74,3.76,3.76,0,0,0,1,.29l.2,0,.19,0a.21.21,0,0,0,.21-.15h0a.29.29,0,0,0,0-.09h0v-.07c.18-.65.35-1.65.35-1.65.21.18,1.29,1,1.35.67a44.49,44.49,0,0,0,1-8.94.08.08,0,0,0-.16,0c-.59,2.71-.7,5.51-1.25,8.24a4.82,4.82,0,0,0-1.26-.73c-.09,0-.3,1.94-.4,2.22v0a4.08,4.08,0,0,1-2.74-1.63C82,46.67,81.93,46.71,82,46.79Z"/><path class="cls-4" d="M84.28,48.4a3.48,3.48,0,0,1-1.61.73,1.56,1.56,0,0,1-.94-.17c-.63-.33-.5-1-.25-1.45a3.78,3.78,0,0,1,.49-.74A4.49,4.49,0,0,0,84.28,48.4Z"/><path class="cls-8" d="M82.67,49.13a1.56,1.56,0,0,1-.94-.17c-.63-.33-.5-1-.25-1.45A1.61,1.61,0,0,1,82.67,49.13Z"/><path class="cls-4" d="M93.61,36.3q-.28.12-.57.21c-5.12,1.58-10.1-4.13-10.1-4.13a5.16,5.16,0,0,1-5.79,2.13,33.65,33.65,0,0,1-2,4.76,18.47,18.47,0,0,1,8.71-15.11,35.43,35.43,0,0,1,4.75,2.08A7,7,0,0,1,91,24.07a2,2,0,0,1,2.76.84,4.71,4.71,0,0,0-1.16,1.78c-.85,2.23,1,2.62,1.45.52a3.34,3.34,0,0,0-.29-2.3c1.21-1.17,2.82-1.3,3.59-.38C98.76,26.21,98,34.46,93.61,36.3Z"/><g class="cls-10"><path class="cls-11" d="M97.52,57.84a18.44,18.44,0,1,1,14-22A18.44,18.44,0,0,1,97.52,57.84Z"/><path class="cls-12" d="M77.37,48.69a18.44,18.44,0,0,0,20.15,9.15,18.05,18.05,0,0,0,4.74-1.75Z"/><path class="cls-12" d="M77.9,30.08,112,40.23a18.54,18.54,0,0,0-.43-4.36,18,18,0,0,0-1.73-4.7l-25.17-7.5A18.58,18.58,0,0,0,77.9,30.08Z"/><path class="cls-12" d="M75.24,42l32.47,9.66a19,19,0,0,0,2-3L75.17,38.37A18.33,18.33,0,0,0,75.24,42Z"/><path class="cls-12" d="M76.72,32.31l35,10.44c0-.23.07-.45.1-.67L77,31.71C76.9,31.91,76.81,32.11,76.72,32.31Z"/><path class="cls-12" d="M90.5,21.65l15.55,4.63a16.32,16.32,0,0,0-1.27-1.07L92.13,21.45A15.42,15.42,0,0,0,90.5,21.65Z"/></g><rect class="cls-12" x="97.7" y="59.04" width="4.85" height="21.32" transform="translate(212.9 116.25) rotate(167.58)"/><path class="cls-13" d="M113.57,35.43A20.5,20.5,0,1,0,98,59.86,20.5,20.5,0,0,0,113.57,35.43Zm-16,22.41a18.44,18.44,0,1,1,14-22A18.44,18.44,0,0,1,97.52,57.84Z"/><polygon class="cls-4" points="102.01 95.29 109.17 93.72 109.17 93.72 105.11 75.26 97.94 76.83 97.94 76.83 102.01 95.29"/><path class="cls-11" d="M105.13,37.42a.19.19,0,0,0,0-.07c-.08-.3.1.3,0,.1s-.15-.48-.24-.72a15,15,0,0,0-1.15-2.39c-.06-.11-.12-.22-.19-.33l0,0-.13-.19c-.16-.25-.33-.49-.51-.73a13.61,13.61,0,0,0-1.26-1.49l-.33-.33c-.14-.14.18.16,0,0l-.21-.18c-.26-.24-.54-.46-.82-.68s-.63-.45-1-.65l-.45-.27c-.27-.15.11.06-.08,0l-.28-.15a14.33,14.33,0,0,0-2.67-1h0l-.1,0-.41-.09-.8-.14c-.57-.08-1.14-.13-1.72-.16a1.22,1.22,0,0,1,.28-2.42,15.27,15.27,0,0,1,9.85,4,16.8,16.8,0,0,1,4.12,6,12.55,12.55,0,0,1,.52,1.57,1.21,1.21,0,0,1-1,1.39,1.26,1.26,0,0,1-1.4-1Z"/><path class="cls-11" d="M105.63,41A1.21,1.21,0,0,0,107,42a1.2,1.2,0,0,0-.38-2.37A1.21,1.21,0,0,0,105.63,41Z"/><path class="cls-2" d="M117.74,84s5.12-8.42-1.26-16.44c-2.62-3.31-8.82-9.23-21.38-8.41-3,.2-7.09,2.59-2.11,4,3.55,1,6.1.61,8.05,1.58,0,0-4.86,3.67-4.55,6.65a39.89,39.89,0,0,0,1,7,3.09,3.09,0,0,0,1.83.59,14.34,14.34,0,0,0,10.14,8.33Z"/><path class="cls-2" d="M113.79,66.43a33,33,0,0,0-10.49-2.59C98.79,63.71,90.07,64.69,90,68c0,2.44,3.32,2.36,3.32,2.36s-3.52,1.16-3.07,3.37c.4,2,3,1.8,3,1.8s-2,1.07-1.25,2.94c.92,2.25,5-.37,7.88,1.1C100.54,79.92,113.79,66.43,113.79,66.43Z"/><path class="cls-4" d="M104,68.62A18,18,0,0,0,93.38,70.3c-.08,0-.09.13,0,.1A44.09,44.09,0,0,1,104,68.67,0,0,0,0,0,104,68.62Z"/><path class="cls-4" d="M103.7,73.17a20.1,20.1,0,0,0-10.46,2.3c-.08,0-.08.13,0,.11a47.32,47.32,0,0,1,10.46-2.37S103.72,73.17,103.7,73.17Z"/><path class="cls-4" d="M111,87.84a19.57,19.57,0,0,1-2.67-.82,19,19,0,0,1-2.56-1.16,14.78,14.78,0,0,1-4.33-3.57c-.36-.45-.7-.91-1-1.39s-.65-1-1-1.49c0,0-.09,0-.07,0a16.06,16.06,0,0,0,1.52,2.83,11.56,11.56,0,0,0,1.91,2.27,13.15,13.15,0,0,0,5,2.78,17.9,17.9,0,0,0,3.24.58S111.07,87.85,111,87.84Z"/><path class="cls-2" d="M58.83,60.9C49.62,73.27,34.25,105.5,32,110.24c-1.54,3.22,15.28,11.7,16,9.36.91-3,16-42.55,18.05-57C67.19,54.72,62,56.62,58.83,60.9Z"/><path class="cls-2" d="M48.43,118c-.39,2.92-2.37,8.79-3.84,9.69s-9.21.7-13.11.7-4.67-1.09-4.61-2.43,8.25-1.6,8.25-1.6S24.19,127.47,21.44,128s-9.08,2.11-10-.18c-.41-1,1.32-2.06,1.32-2.06s-2.66.77-3.08-.55c-.48-1.5,1.63-2.33,1.63-2.33s-1.66.33-1.7-.89c-.08-2.74,10.31-4.09,10.31-4.09s-8,3.88-8.21,1.64c-.36-3.09,16-6.48,17.66-7.83a32.42,32.42,0,0,0,3.45-3.36Z"/><path class="cls-4" d="M26.93,126.62a1.18,1.18,0,0,1,.37-1,3.18,3.18,0,0,1,.95-.62,12.76,12.76,0,0,1,2.24-.73c1.53-.39,3.11-.66,4.68-1.07a19.58,19.58,0,0,0-4.82.54,9.49,9.49,0,0,0-2.3.88,3.17,3.17,0,0,0-1,.83A1.26,1.26,0,0,0,26.93,126.62Z"/><path class="cls-4" d="M12.76,125.75c1.13-.28,2.23-.6,3.34-.92s2.21-.65,3.31-1l3.29-1,3.31-1a24.74,24.74,0,0,0-3.42.61c-1.13.25-2.24.58-3.34.91s-2.2.71-3.28,1.12S13.81,125.26,12.76,125.75Z"/><path class="cls-4" d="M23.37,119.07a20.88,20.88,0,0,0-3.16.43,27.31,27.31,0,0,0-3.08.8,29,29,0,0,0-3,1.11,23.66,23.66,0,0,0-2.83,1.46c1-.35,2-.73,3-1.07s2-.67,3-1,2-.61,3-.91S22.34,119.34,23.37,119.07Z"/><path class="cls-4" d="M21.76,116.46a19.12,19.12,0,0,0-5,1.06,19.32,19.32,0,0,0-4.62,2.23c1.62-.57,3.19-1.18,4.79-1.72S20.13,117,21.76,116.46Z"/><path class="cls-3" d="M62.74,82.1l-18.66-.51S54.24,65.39,59.7,59.46c5.69-6.19,8.78-5.66,6.84,5.3S62.74,82.1,62.74,82.1Z"/><path class="cls-4" d="M61.57,78.85c-.44-.06-.89-.06-1.34-.08l-1.37-.08-2.79-.11c-1.86,0-3.71-.12-5.57-.14-.51,0-1,0-1.53,0s-1.08,0-1.61.06c0,0,0,.05,0,.05.46,0,.92.09,1.38.12l1.41.08,2.79.08c1.83.05,3.66.1,5.48.1H60c.53,0,1.08,0,1.61,0C61.59,78.9,61.6,78.86,61.57,78.85Z"/><path class="cls-4" d="M66.36,70s0,0-.06,0a14.08,14.08,0,0,0-.89,2c.07-.32.14-.65.2-1,.21-1.06.39-2.11.6-3.17,0,0,0,0-.06,0-.48,1.81-1,3.6-1.47,5.42s-.86,3.65-1.26,5.48c-.23,1-.42,2.28-.64,3.29-.54.06-1.23,0-1.82.07-.05,0,0,.09,0,.09.61,0,1.34.15,2,.12.08,0,1.65-6.51,2.3-9.62C65.66,71.74,66,70.86,66.36,70Z"/><path class="cls-4" d="M79.65,59.85c-.26.86-.56,1.7-.9,2.53a13.41,13.41,0,0,1-1,2.16,4.23,4.23,0,0,1-3.47,2.22,5,5,0,0,1-3.65-1.89,14.75,14.75,0,0,1-2.26-4c-.37-.86-.71-1.74-1-2.63-.15-.45-.3-.9-.43-1.36s-.24-.92-.4-1.36c0,0-.08,0-.07,0,.27,1,1,4.28,1.34,5.12A16.08,16.08,0,0,0,70,65a5.7,5.7,0,0,0,3.85,2.27,4.13,4.13,0,0,0,3.78-1.92,10.07,10.07,0,0,0,1.18-2.53c.33-1,.61-2,.86-3C79.67,59.84,79.65,59.84,79.65,59.85Z"/></svg>